<?xml version="1.0" encoding="utf-8"?>
<!-- Generator: Adobe Illustrator 22.1.0, SVG Export Plug-In . SVG Version: 6.00 Build 0)  -->
<svg version="1.1" id="レイヤー_1" xmlns="http://www.w3.org/2000/svg" xmlns:xlink="http://www.w3.org/1999/xlink" x="0px"
	 y="0px" viewBox="0 0 317.8 257.9" style="enable-background:new 0 0 317.8 257.9;" xml:space="preserve">
<style type="text/css">
	.st0{fill:#FFFF00;}
	.st1{fill:#009A63;}
	.st2{enable-background:new    ;}
</style>
<rect x="11.2" y="66.4" class="st0" width="208.3" height="24.2"/>
<rect x="11.2" y="-0.4" class="st0" width="131.8" height="58.5"/>
<rect x="11.2" y="160.1" class="st0" width="280" height="27.9"/>
<g>
	<rect x="10.4" y="224.4" class="st0" width="252.5" height="32"/>
	<rect x="10.4" y="198.4" class="st0" width="58.7" height="20.8"/>
	<g>
		<g>
			<path class="st1" d="M27.7,207.6h-3.5c1.2,1,2.6,1.6,4.2,2c0.4,0.1,0.5,0.3,0.5,0.6c0,0.4-0.3,0.7-0.8,0.7s-3.3-1-5.6-3.3h-2.2
				c-2.3,2.7-5.6,3.8-5.9,3.8c-0.4,0-0.7-0.3-0.7-0.7c0-0.2,0.2-0.5,0.5-0.6c2-0.6,3.4-1.5,4.4-2.5H15l0,0c-0.4,0-0.7-0.3-0.7-0.6
				s0.2-0.6,0.7-0.6h4.6c0.3-0.5,0.5-0.9,0.7-1.4c-0.3,0-3.1,0.3-4.5,0.3c-0.5,0-0.7-0.3-0.7-0.6s0.2-0.6,0.6-0.6c0.8,0,1.5,0,2.3,0
				c0.4-0.6,1-1.8,1.3-2.4c0.1-0.3,0.4-0.4,0.7-0.4c0.4,0,0.8,0.3,0.8,0.7c0,0.2-0.1,0.4-1.2,2.1c1.5-0.1,3.1-0.2,4.5-0.4
				c-0.2-0.2-0.5-0.3-0.7-0.5c-0.2-0.1-0.3-0.3-0.3-0.4c0-0.3,0.3-0.6,0.6-0.6c0.6,0,3.4,1.8,3.4,2.7c0,0.4-0.3,0.7-0.7,0.7
				c-0.2,0-0.4-0.1-0.6-0.3c-0.2-0.3-0.5-0.6-0.7-0.8c-1.1,0.2-2.3,0.3-3.5,0.5c0.1,0.1,0.2,0.2,0.2,0.4s-0.1,0.4-0.6,1.2h6.4
				c0.5,0,0.7,0.3,0.7,0.6C28.4,207.3,28.1,207.6,27.7,207.6L27.7,207.6z M16.4,216.5c-0.3,0-0.8,0-0.8-0.6c0-0.3,0.2-0.7,0.7-0.7
				h0.2c4.3,0,7-1.3,9.1-3.4c0.2-0.2,0.4-0.3,0.6-0.3c0.4,0,0.7,0.3,0.7,0.7c0,0.2-0.1,0.4-0.2,0.5
				C24.1,215.2,20.7,216.5,16.4,216.5z M16.9,214.5c-0.5,0-0.7-0.3-0.7-0.6s0.2-0.5,0.5-0.6c2.6-0.3,4.8-1.4,6.6-3.1
				c0.2-0.2,0.3-0.2,0.5-0.2c0.4,0,0.7,0.3,0.7,0.7c0,0.2-0.1,0.3-0.2,0.5C20.9,214.2,16.9,214.5,16.9,214.5z M17,212.4
				c-0.4,0-0.6-0.3-0.6-0.5s0.1-0.5,0.5-0.5c1.6-0.5,3.2-1.3,4.5-2.8c0.2-0.2,0.3-0.2,0.5-0.2c0.3,0,0.7,0.3,0.7,0.6
				c0,0.2-0.1,0.3-0.2,0.5C20.2,211.6,17.4,212.4,17,212.4z"/>
			<path class="st1" d="M35.8,206.2v0.3c-0.1,2.7-0.7,6.8-3.4,9.5c-0.2,0.2-0.4,0.3-0.6,0.3c-0.4,0-0.7-0.3-0.7-0.7
				c0-0.2,0.1-0.3,0.2-0.5c2.6-2.5,3-6,3.1-8.6v-0.3c-0.6,0-1.3,0-1.9,0l0,0c-0.4,0-0.6-0.3-0.6-0.6s0.2-0.7,0.6-0.7h1.9
				c0-0.5,0-0.9,0-1.4s0-0.9,0-1.3l0,0c0-0.4,0.3-0.6,0.7-0.6s0.7,0.2,0.7,0.6v0.5c0,0.7,0,1.4-0.1,2.2H37c1.1,0,1.8,0.7,1.8,1.9
				v0.6c0,1.6-0.1,4.2-0.3,5.7c-0.3,1.9-1.4,2.7-2.7,2.7c-0.4,0-0.8-0.1-1.3-0.2c-0.3-0.1-0.5-0.4-0.5-0.7s0.2-0.7,0.6-0.7
				c0.1,0,0.2,0,0.3,0.1c0.3,0.1,0.5,0.1,0.8,0.1c1.1,0,1.8-0.7,1.8-6.4c0-1.3,0-1.8-0.8-1.8L35.8,206.2L35.8,206.2z M44.2,215.7
				c-0.4,0-0.7,0-1,0c-1.3,0-2.8,0-2.9-1.8c0-1.3-0.1-2.7-0.1-4c0-1.4,0-2.8,0.1-4c0-1,0.7-1.7,1.8-1.7c0.3,0,0.6,0,1,0s0.7,0,1.2,0
				c1,0.1,1.8,0.7,1.8,1.7c0.1,1.2,0.1,2.5,0.1,3.8c0,1.5,0,2.9-0.1,4.2C46,215,45.2,215.7,44.2,215.7z M44.7,209.8
				c0-1.3,0-2.6-0.1-3.6c0-0.8-0.5-0.9-1.3-0.9c-1,0-1.6,0.1-1.7,0.9c0,1-0.1,2.2-0.1,3.5c0,1.4,0,2.8,0.1,3.9
				c0,0.8,0.5,0.8,1.6,0.8s1.4-0.2,1.4-0.9C44.7,212.5,44.7,211.1,44.7,209.8z"/>
			<path class="st1" d="M59.6,205.1v0.8c1.5,0,2.7,0,3.3,0c0.8,0,1.4,0.3,1.4,1c0,0.4-0.3,1-0.3,1.1c-0.3,0.6-0.8,0.9-1.8,0.9h-0.3
				c0.1,0.1,0.1,0.3,0.1,0.4c0,0.5,0.1,1.1,0.1,1.7c0,0.6,0,1.2-0.1,1.8c0,0.7-0.6,1.3-1.7,1.3c-0.3,0-0.7,0-1.1,0
				c0.4,0.2,2.1,0.9,4.4,1c0.5,0,0.7,0.3,0.7,0.7s-0.3,0.7-0.8,0.7c-0.9,0-3-0.4-4.7-1.2c-0.3-0.1-0.4-0.3-0.4-0.5
				c0-0.3,0.2-0.6,0.5-0.7c-0.6,0-1.2,0-1.9,0c-0.6,0-1.2,0-1.8,0c0.3,0.1,0.6,0.4,0.6,0.7c0,0.2-0.1,0.4-0.4,0.6
				c-1.4,0.7-3.5,1.2-4.8,1.2c-0.5,0-0.8-0.3-0.8-0.7s0.2-0.6,0.7-0.7c1.5-0.1,2.9-0.4,4.3-1.1c0.1,0,0.1-0.1,0.2-0.1
				c-0.3,0-0.6,0-0.9,0c-1.2,0-1.7-0.6-1.8-1.3c0-0.5-0.1-1.1-0.1-1.7c0-1.6,0-2,0.2-2.4c-0.7,0.2-1.9,0.5-2.2,0.5
				c-0.4,0-0.6-0.3-0.6-0.6s0.1-0.5,0.5-0.6c1.9-0.2,3-0.6,3.6-1.2h-2c-1.1,0-1.4-0.3-1.4-0.8c0-0.2,0.1-0.8,0.3-1.2
				c0.3-0.5,0.6-0.6,1.6-0.6h2.4v-0.9c-1.3,0-2.6,0-3.5,0c-0.3,0-0.5-0.2-0.5-0.5s0.2-0.5,0.5-0.5h3.4v-0.6l0,0
				c0-0.4,0.3-0.6,0.6-0.6s0.7,0.2,0.7,0.6c0,0.2,0,0.4,0,0.6h2v-0.6c0-0.4,0.3-0.6,0.7-0.6c0.3,0,0.7,0.2,0.7,0.6v0.6h2.3
				c1.5,0,1.6,0.5,1.6,1.4S63,205,61.5,205h-1.9C59.6,205,59.6,205.1,59.6,205.1z M52.9,205.1c-0.4,0-0.7,0-0.7,0.6
				c0,0.2,0.2,0.3,0.5,0.3c0.5,0,1.2,0,1.9,0c0.1-0.3,0.2-0.6,0.3-0.9C54,205.1,53.3,205.1,52.9,205.1z M60.7,210.7h-7v0.9h7V210.7z
				 M53.7,212.4v0.2c0,0.5,0.3,0.6,0.8,0.7c0.8,0,1.7,0,2.6,0s1.9,0,2.7,0c0.5,0,0.7-0.2,0.8-0.7c0-0.1,0-0.1,0-0.2H53.7z
				 M60.7,209.7c0-0.4-0.2-0.6-0.8-0.6c-0.8,0-1.7,0-2.6,0s-1.9,0-2.7,0c-0.6,0-0.8,0.3-0.8,0.7v0.2h6.9
				C60.7,210,60.7,209.7,60.7,209.7z M58.2,206.8h-2.8c-0.3,0.5-0.7,0.9-1.3,1.3h0.1c0.8,0,1.6,0,2.4,0c0.6,0,1.2,0,1.7,0
				c-0.1-0.1-0.2-0.2-0.2-0.4L58.2,206.8L58.2,206.8z M58.2,205.1H56c-0.1,0.3-0.1,0.6-0.2,0.9h2.4V205.1L58.2,205.1z M58.2,203.4
				h-2c0,0.3,0,0.6,0,0.9h2.1L58.2,203.4L58.2,203.4z M60.2,208.1c0.1-0.2,0.2-0.5,0.5-0.5c0.1,0,0.1,0,0.1,0
				c0.5,0.1,0.8,0.2,1.1,0.2c0.7,0,0.8-0.7,0.8-0.8s-0.1-0.2-0.4-0.2c-0.6,0-1.6,0-3,0v0.9c0,0.2-0.1,0.3-0.2,0.4L60.2,208.1
				L60.2,208.1z M61.5,204.2c0.5,0,0.5-0.1,0.5-0.4c0-0.3,0-0.5-0.5-0.5s-1.2,0-1.9,0v0.9H61.5z"/>
		</g>
	</g>
	<g>
		<g>
			<path class="st1" d="M17.9,245.8c-0.7,0-1-0.5-1-1s0.3-1,1-1h3.5v-4h-4c-0.7,0-1-0.4-1-0.9s0.4-1,1-1h4v-3.7
				c-2,2.4-2.5,2.7-3,2.7c-0.6,0-1.2-0.5-1.2-1.1c0-0.3,0.1-0.6,0.4-0.8c2.1-1.8,3.5-3.6,4.6-6c0.2-0.4,0.5-0.5,0.9-0.5
				c0.6,0,1.3,0.5,1.3,1.1c0,0.3-0.1,0.5-1.5,2.6h14.7c0.6,0,1,0.5,1,1s-0.3,1-1,1h-1.8v3.9h3.9c0.6,0,1,0.5,1,1s-0.3,1-1,1h-3.9v4
				h3.3c0.6,0,1,0.5,1,1s-0.3,1-1,1H17.9V245.8z M17.3,252.1c0-0.3,0.2-0.7,0.6-1c0.9-0.6,2.2-1.9,2.5-3.2c0.1-0.6,0.6-0.8,1.1-0.8
				c0.6,0,1.1,0.4,1.1,1c0,1.1-2.1,5-4.1,5C17.9,253.1,17.3,252.7,17.3,252.1z M25.6,234h-2.3v3.9h2.3V234z M25.6,239.8h-2.3v4h2.3
				V239.8z M25.2,251.7c0-1.3-0.3-2.6-0.6-3.5c-0.1-0.1-0.1-0.2-0.1-0.3c0-0.5,0.5-0.7,1-0.7c0.4,0,0.8,0.1,1,0.5
				c0.6,0.9,1,2.8,1,4.1c0,0.8-0.6,1.3-1.3,1.3c-0.6,0-1.1-0.4-1.1-1.1v-0.3H25.2z M29.6,234h-2.3v3.9h2.3V234z M29.6,239.8h-2.3v4
				h2.3V239.8z M31,252c-0.3-1.5-1-2.7-1.5-3.6c-0.1-0.2-0.1-0.3-0.1-0.5c0-0.5,0.5-0.8,1-0.8c1.6,0,3,4.1,3,4.6
				c0,0.8-0.6,1.2-1.2,1.2S31.1,252.7,31,252z M33.7,234h-2.3v3.9h2.3V234z M33.7,239.8h-2.3v4h2.3V239.8z M38.5,252.7
				c-0.4,0-0.8-0.2-1-0.7c-0.7-1.3-1.9-2.6-2.9-3.5c-0.2-0.2-0.3-0.4-0.3-0.6c0-0.5,0.6-0.9,1.2-0.9c1.2,0,4.4,3.1,4.4,4.3
				C39.8,252.2,39.1,252.7,38.5,252.7z"/>
			<path class="st1" d="M51.9,252.2c0,0.6-0.6,1-1.1,1s-1.1-0.3-1.1-1l0,0l0.1-9.1c-1,1.7-2.1,3.2-3.3,4.4c-0.3,0.3-0.6,0.4-0.9,0.4
				c-0.6,0-1.1-0.5-1.1-1c0-0.3,0.1-0.5,0.4-0.8c1.5-1.3,3.6-3.8,4.9-6.3v-0.2l-3.5,0.1l0,0c-0.7,0-1-0.5-1-1s0.4-1.1,1.1-1.1h3.5
				l-0.1-7.7l0,0c0-0.7,0.6-1,1.1-1s1.1,0.3,1.1,1l0,0c0,0-0.1,4.2-0.1,7.7h3.2c0.6,0,1,0.5,1,1s-0.3,1-0.9,1l0,0l-3.2-0.1
				c0,0.7,0,1.2,0,1.7c0.2-0.1,0.4-0.2,0.6-0.2c0.6,0,3.3,1.8,3.3,2.9c0,0.6-0.5,1.1-1.1,1.1c-0.3,0-0.5-0.1-0.8-0.4
				c-0.6-0.8-1.4-1.6-2.1-2.1C51.8,246,51.9,252.2,51.9,252.2L51.9,252.2z M47.3,235.6c-0.4-1-1.3-2.2-1.6-2.7
				c-0.1-0.2-0.2-0.4-0.2-0.5c0-0.5,0.6-0.9,1.1-0.9c1.1,0,2.7,2.9,2.7,3.5c0,0.7-0.6,1.1-1.1,1.1C47.7,236.2,47.4,236,47.3,235.6z
				 M53,236.2c-0.5,0-1-0.4-1-0.8c0-0.1,0.1-0.3,0.2-0.5c0.5-0.7,1.3-2,1.7-2.9c0.2-0.4,0.4-0.5,0.8-0.5c0.6,0,1.1,0.5,1.1,1.1
				c0,0.7-1.6,2.7-2.1,3.3C53.5,236.1,53.3,236.2,53,236.2z M63.8,245.3l-7.5,2.1c-0.1,0-0.3,0.1-0.4,0.1c-0.6,0-1-0.5-1-1
				c0-0.4,0.3-0.9,0.8-1l8.1-2.3v-13.5c0-0.7,0.6-1,1.1-1c0.6,0,1.1,0.3,1.1,1v12.8l2.9-0.8c0.1,0,0.2-0.1,0.3-0.1
				c0.6,0,1,0.5,1,1.1c0,0.4-0.2,0.8-0.8,1l-3.5,1v7.5c0,0.6-0.6,0.9-1.1,0.9c-0.6,0-1.1-0.3-1.1-0.9L63.8,245.3z M60.2,241.2
				c-0.9-0.8-2.1-1.5-2.9-1.9c-0.4-0.2-0.6-0.5-0.6-0.8c0-0.5,0.5-1,1.2-1c0.3,0,4.1,1.2,4.1,2.8c0,0.6-0.5,1.2-1.1,1.2
				C60.7,241.5,60.4,241.4,60.2,241.2z M60.4,235.4c-0.8-0.9-2-1.7-2.7-2.1c-0.3-0.2-0.4-0.4-0.4-0.7c0-0.5,0.5-1,1.2-1
				c0.4,0,3.9,1.6,3.9,3c0,0.6-0.5,1.2-1.1,1.2C60.9,235.8,60.6,235.7,60.4,235.4z"/>
			<path class="st1" d="M79.6,250c-0.4,0-4.2-2-4.2-6.7c0-4.6,3.7-6.7,4.1-6.7c0.2,0,0.4,0.2,0.4,0.4c0,0.1-0.1,0.2-0.2,0.3
				c-2.4,1.2-3.6,3.6-3.6,6s1.2,4.8,3.6,6.1c0.1,0.1,0.2,0.2,0.2,0.3C79.9,249.9,79.8,250,79.6,250z"/>
			<path class="st1" d="M83.9,248.7c0-0.3,0.2-0.6,0.7-0.7c3.8-0.8,5.3-4.3,5.3-6.3c0-0.9-0.4-0.9-2.4-0.9c-1.1,0-2.2,0-2.7,0
				c-0.9,0-0.9,0.7-0.9,1c0,0.5,0,1.3,0.1,1.7v0.1c0,0.4-0.4,0.7-0.7,0.7c-0.3,0-0.6-0.2-0.6-0.6c0-0.3,0-0.7,0-1.2
				c0-0.6,0-1.1,0-1.3c0-0.8,0.5-1.4,2-1.5c1,0,2.4,0,3.7,0c1.8,0,2.9,0,2.9,1.8c0,0.1,0,0.2,0,0.4c-0.4,5.8-5.9,7.5-6.6,7.5
				C84.1,249.3,83.9,249,83.9,248.7z"/>
			<path class="st1" d="M95.7,244c-0.5,0-0.7-0.3-0.7-0.6s0.2-0.6,0.7-0.6h9.2c0.4,0,0.6,0.3,0.6,0.6s-0.2,0.6-0.6,0.6H95.7z"/>
			<path class="st1" d="M109.7,244.6c-0.4,0-0.6-0.3-0.6-0.6c0-0.2,0.1-0.4,0.4-0.6c1.4-0.9,3.3-3.5,4-4.8c0.1-0.2,0.3-0.3,0.5-0.3
				c0.4,0,0.7,0.2,0.7,0.6c0,0.1,0,0.3-0.1,0.4l-0.2,0.3c1.2-0.1,2.1-0.1,2.3-0.1c0.8,0,1.5,0.5,1.5,1.1c0,0.2,0,0.4-0.1,0.5
				c-1.7,3.3-3.9,6.4-7.9,8c-0.2,0.1-0.3,0.1-0.4,0.1c-0.4,0-0.7-0.3-0.7-0.6s0.2-0.5,0.6-0.7c4.7-1.7,7-6.6,7-7
				c0-0.2-0.1-0.4-0.4-0.4c-0.5,0-2.1,0.2-2.6,0.2C112.2,242.6,110.4,244.6,109.7,244.6z"/>
			<path class="st1" d="M125,244.5c-0.6-0.4-1.3-0.7-1.9-0.8c-0.3,0-0.4-0.3-0.4-0.5c0-0.3,0.2-0.6,0.7-0.6s1.8,0.5,2.4,0.8
				c0.3,0.1,0.4,0.4,0.4,0.6c0,0.3-0.3,0.7-0.6,0.7C125.3,244.6,125.2,244.6,125,244.5z M124.6,249.1c-0.4,0-0.7-0.3-0.7-0.7
				c0-0.3,0.2-0.6,0.6-0.7c3-0.8,6.2-3.7,7.7-6.8c0.1-0.3,0.4-0.4,0.6-0.4c0.3,0,0.6,0.2,0.6,0.6c0,0.1,0,0.3-0.1,0.5
				C130.4,247.2,125.1,249.1,124.6,249.1z M126.7,241.9c-0.5-0.5-1.1-1-1.7-1.2c-0.2-0.1-0.3-0.3-0.3-0.5c0-0.3,0.2-0.6,0.6-0.6
				c0.3,0,1.6,0.6,2.3,1.3c0.2,0.2,0.2,0.3,0.2,0.5c0,0.4-0.3,0.7-0.7,0.7C127.1,242.1,126.9,242,126.7,241.9z"/>
			<path class="st1" d="M139.4,245.8h-0.6c-0.4,0-0.6-0.2-0.6-0.5s0.2-0.5,0.6-0.5c1,0,3.2,0,4.2,0c0-0.3,0-0.6,0-0.8
				c0-0.5-0.3-0.5-1.2-0.5c-1,0-2.4,0.1-3.3,0.1l0,0c-0.4,0-0.6-0.2-0.6-0.5s0.2-0.5,0.6-0.5c0.8,0,2.1-0.1,3.2-0.1
				c0.4,0,0.8,0,1.1,0c1,0,1.4,0.6,1.4,1.4v3.2c0,1-0.7,1.3-1.6,1.4c-1.1,0.1-3.1,0.1-4.2,0.1c-0.4,0-0.6-0.3-0.6-0.6
				s0.2-0.5,0.6-0.5l0,0c0.5,0,1.3,0,2,0c2.3,0,2.6,0,2.7-0.5c0-0.2,0-0.6,0-1C141.8,245.8,140.4,245.8,139.4,245.8z"/>
			<path class="st1" d="M151.2,245.6c-0.2,0-0.4-0.1-0.5-0.3c-0.2-0.4-0.6-0.9-0.9-1.2c-0.1-0.1-0.2-0.2-0.2-0.4
				c0-0.3,0.3-0.5,0.6-0.5c0.5,0,1.6,1.4,1.6,1.8C151.8,245.3,151.5,245.6,151.2,245.6z M150.9,249.5c-0.4,0-0.6-0.3-0.6-0.6
				c0-0.2,0.1-0.4,0.4-0.5c2.5-1,4.1-3.1,4.7-5.6c0.1-0.3,0.3-0.5,0.6-0.5s0.6,0.2,0.6,0.6c0,0-0.8,4.5-5.4,6.5
				C151.1,249.5,151,249.5,150.9,249.5z M153.2,244.8c-0.2,0-0.4-0.1-0.5-0.4c-0.1-0.5-0.4-1-0.7-1.3c-0.1-0.1-0.1-0.2-0.1-0.3
				c0-0.3,0.3-0.5,0.6-0.5c0.6,0,1.5,1.7,1.5,2C153.8,244.6,153.5,244.8,153.2,244.8z"/>
			<path class="st1" d="M161.6,249.1c-0.4,0-0.7-0.3-0.7-0.7c0-0.3,0.2-0.5,0.5-0.6c4.7-1.5,6.1-5.9,6.1-6.4s-0.2-0.5-1.5-0.5
				c-1.5,0-3.4,0.1-5.2,0.1l0,0c-0.4,0-0.6-0.3-0.6-0.6s0.2-0.6,0.6-0.6c1.4-0.1,3.1-0.1,4.7-0.1c0.7,0,1.3,0,1.9,0
				c0.9,0,1.6,0.6,1.6,1.4c0,0.2,0,0.4-0.1,0.6c-1,2.9-2.8,5.8-6.9,7.3C161.8,249.1,161.7,249.1,161.6,249.1z M170.1,240
				c-0.8,0-1.5-0.7-1.5-1.5s0.7-1.5,1.5-1.5s1.5,0.7,1.5,1.5S170.9,240,170.1,240z M170.1,237.7c-0.4,0-0.8,0.4-0.8,0.8
				s0.4,0.8,0.8,0.8s0.8-0.4,0.8-0.8S170.5,237.7,170.1,237.7z"/>
			<path class="st1" d="M175.7,239c-0.4,0.7-1,1.3-1.5,1.8c-0.1,0.1-0.3,0.2-0.4,0.2c-0.3,0-0.6-0.2-0.6-0.5c0-0.1,0.1-0.3,0.2-0.4
				c1-0.8,1.6-1.8,2.1-2.9c0.1-0.2,0.3-0.3,0.4-0.3c0.3,0,0.6,0.3,0.6,0.6c0,0.1,0,0.2-0.3,0.7h2.3c0.3,0,0.5,0.2,0.5,0.5
				s-0.2,0.5-0.5,0.5h-2.8V239z M184.9,246.5h-2.8v0.6v1.1l0,0c0,0.7-0.4,1.7-2,1.7c-1.3,0-1.4-0.3-1.4-0.7c0-0.3,0.2-0.6,0.5-0.6
				h0.1c0.3,0.1,0.6,0.1,0.8,0.1c0.5,0,0.8-0.2,0.8-0.8l0,0v-1.5h-7.1c-0.3,0-0.5-0.2-0.5-0.5s0.2-0.5,0.5-0.5h7.1v-0.5
				c0-0.3,0.3-0.5,0.6-0.5s0.6,0.2,0.6,0.5v0.5h2.8c0.4,0,0.5,0.2,0.5,0.5C185.5,246.2,185.3,246.5,184.9,246.5L184.9,246.5z
				 M174.1,244.3c-0.4,0-0.5-0.2-0.5-0.5s0.2-0.5,0.5-0.5h4.7v-1.1h-3.5c-0.4,0-0.5-0.2-0.5-0.5c0-0.2,0.2-0.5,0.5-0.5h3.5v-0.5
				c0-0.4,0.3-0.6,0.6-0.6s0.6,0.2,0.6,0.6v0.5h3.4c0.4,0,0.5,0.2,0.5,0.5c0,0.2-0.2,0.5-0.5,0.5H180v1.1h4.7c0.3,0,0.5,0.3,0.5,0.5
				s-0.2,0.5-0.5,0.5H174.1z M176.8,240.8c-0.2-0.4-0.5-0.7-0.8-0.8c-0.1-0.1-0.2-0.2-0.2-0.3c0-0.2,0.2-0.5,0.5-0.5
				c0.4,0,1.3,0.8,1.3,1.3c0,0.3-0.3,0.5-0.5,0.5C177,241,176.8,241,176.8,240.8z M177.8,248.6c-0.5-0.4-1-0.7-1.5-0.8
				c-0.2-0.1-0.3-0.2-0.3-0.4c0-0.3,0.2-0.6,0.6-0.6c0.6,0,1.6,0.6,1.9,0.8c0.2,0.1,0.3,0.3,0.3,0.5c0,0.3-0.3,0.7-0.6,0.7
				C178,248.7,177.9,248.7,177.8,248.6z M180.4,239c-0.1,0.1-1,1.1-1.5,1.1c-0.3,0-0.6-0.2-0.6-0.5c0-0.1,0.1-0.3,0.2-0.4
				c0.9-0.6,1.4-1.1,2-2.1c0.1-0.1,0.2-0.2,0.4-0.2c0.3,0,0.6,0.3,0.6,0.6c0,0.2-0.2,0.4-0.4,0.7h3.6c0.3,0,0.5,0.2,0.5,0.5
				s-0.2,0.5-0.5,0.5h-4.3V239z M182.2,240.8c-0.2-0.4-0.5-0.7-0.8-0.9c-0.1-0.1-0.2-0.2-0.2-0.3c0-0.2,0.2-0.5,0.5-0.5
				c0.4,0,1.4,0.8,1.4,1.3c0,0.3-0.3,0.5-0.5,0.5C182.5,241,182.3,241,182.2,240.8z"/>
			<path class="st1" d="M191.8,244.1c-0.5,0-0.7-0.3-0.7-0.7s0.2-0.7,0.7-0.7H203c0.5,0,0.7,0.3,0.7,0.7s-0.2,0.7-0.7,0.7H191.8z"/>
			<path class="st1" d="M207.4,243.7c-0.4,0-0.5-0.2-0.5-0.5s0.2-0.5,0.5-0.5h3.3c0.3-0.6,0.8-1.6,1-2.4c0.1-0.3,0.3-0.4,0.5-0.4
				c0.3,0,0.7,0.2,0.7,0.6c0,0.3-0.8,1.8-1.1,2.2h1.9c0.4,0,0.5,0.2,0.5,0.5s-0.2,0.5-0.5,0.5L207.4,243.7L207.4,243.7z
				 M207.7,239.6c-0.4,0-0.6-0.2-0.6-0.5s0.2-0.5,0.6-0.5h2.2v-1c0-0.4,0.3-0.5,0.6-0.5s0.6,0.2,0.6,0.5v1h2.2
				c0.4,0,0.5,0.2,0.5,0.5s-0.2,0.5-0.5,0.5H207.7z M211.9,249.4c-0.4,0-0.8,0-1.3,0c-2.5,0-2.9,0-2.9-2.2c0-0.4,0-0.8,0-1.2
				c0-0.7,0.5-1.2,1.3-1.3c0.4,0,0.9,0,1.3,0c0.6,0,1.2,0,1.6,0c0.7,0,1.3,0.5,1.4,1.2c0,0.4,0,0.8,0,1.3c0,0.3,0,0.5,0,0.8
				C213.3,248.8,212.8,249.4,211.9,249.4z M208.9,242c-0.2-0.6-0.5-1-0.7-1.2c-0.1-0.1-0.1-0.2-0.1-0.3c0-0.3,0.3-0.5,0.6-0.5
				c0.6,0,1.3,1.4,1.3,1.7c0,0.4-0.3,0.6-0.6,0.6C209.2,242.4,209,242.3,208.9,242z M212.1,246.3c0-0.5-0.3-0.5-1.7-0.5
				c-0.4,0-0.8,0-1,0c-0.6,0-0.6,0.2-0.6,1.3c0,1.3,0,1.4,1.7,1.4s1.7,0,1.7-1.3C212.2,246.9,212.2,246.6,212.1,246.3z M216.3,247
				c0-0.3,0.2-0.6,0.5-0.6h0.1c0.2,0,0.3,0,0.5,0c1,0,1-1,1-1.2c0-0.7-0.4-1.5-0.9-2.1c-0.3-0.4-0.4-0.7-0.4-1.1s0.1-0.7,0.3-1.1
				c0.5-1.1,0.8-1.6,0.8-1.8c0-0.4-0.2-0.4-1.1-0.4c-1,0-1.3,0-1.3,0.6c0,0.8,0,1.7,0,2.7c0,2,0,4.1,0,6.2v1.2
				c0,0.4-0.3,0.5-0.6,0.5s-0.6-0.2-0.6-0.5c0-7.6,0-8.9,0-10.1c0-0.9,0.5-1.5,1.4-1.5c0.4,0,0.8,0,1.2,0c0.3,0,0.6,0,1,0
				c0.9,0,1.4,0.5,1.4,1.2c0,0.5-0.4,1.3-1,2.3c-0.2,0.3-0.2,0.5-0.2,0.7s0.1,0.5,0.4,0.8c0.5,0.7,0.9,1.5,0.9,2.6
				c0,1.4-0.7,2.4-2.2,2.4C217,247.7,216.3,247.6,216.3,247z"/>
			<path class="st1" d="M232.8,247.9L232.8,247.9c0,0.9-0.5,1.9-2.4,1.9c-1.2,0-1.6-0.2-1.6-0.7c0-0.3,0.2-0.6,0.6-0.6h0.1
				c0.4,0.1,0.7,0.1,1,0.1c0.7,0,1.1-0.2,1.1-0.9c0-0.2,0-0.6,0-0.9h-4.9v2.6c0,0.4-0.3,0.6-0.6,0.6s-0.6-0.2-0.6-0.6
				c0-0.3,0-3.4,0.1-5.8c-0.9,1.1-2.1,2.3-2.6,2.3c-0.4,0-0.6-0.3-0.6-0.6c0-0.2,0.1-0.4,0.3-0.5c1.7-1.2,3-3,4-4.8h-3.6
				c-0.4,0-0.6-0.3-0.6-0.6s0.2-0.6,0.6-0.6h4.1c0.2-0.5,0.4-1,0.5-1.6c0.1-0.3,0.3-0.4,0.6-0.4c0.4,0,0.7,0.2,0.7,0.6
				c0,0.2-0.4,1.1-0.5,1.4h5.6c0.4,0,0.6,0.3,0.6,0.6s-0.2,0.6-0.6,0.6H228c-0.2,0.5-0.5,0.9-0.7,1.4h0.1c0.7,0,1.5,0,2.3,0
				c0.5,0,1,0,1.4,0c1.2,0,1.7,0.6,1.7,1.2c0,0.7,0,3.4,0,4V247.9z M231.6,244.6h-4.9v1.3h4.9V244.6z M231.6,243.7
				c0-0.3,0-0.6,0-0.7c0-0.7-0.5-0.7-2.3-0.7c-0.6,0-1.2,0-1.7,0c-0.6,0-0.8,0.3-0.8,0.6c0,0.2,0,0.4,0,0.7L231.6,243.7L231.6,243.7
				z"/>
			<path class="st1" d="M241.3,249.4c0,0.3-0.3,0.5-0.6,0.5s-0.6-0.2-0.6-0.5l0,0v-4.8c-0.5,0.9-1.1,1.7-1.7,2.3
				c-0.1,0.1-0.3,0.2-0.5,0.2c-0.3,0-0.6-0.2-0.6-0.5c0-0.1,0.1-0.3,0.2-0.4c0.8-0.7,1.9-2,2.6-3.3v-0.1h-1.8l0,0
				c-0.4,0-0.5-0.2-0.5-0.5s0.2-0.6,0.6-0.6h1.8v-4.1l0,0c0-0.4,0.3-0.5,0.6-0.5s0.6,0.2,0.6,0.5l0,0c0,0,0,2.2-0.1,4.1h1.7
				c0.3,0,0.5,0.3,0.5,0.5c0,0.3-0.2,0.5-0.5,0.5l0,0h-1.7c0,0.4,0,0.6,0,0.9c0.1-0.1,0.2-0.1,0.3-0.1c0.3,0,1.7,1,1.7,1.5
				c0,0.3-0.3,0.6-0.6,0.6c-0.1,0-0.3-0.1-0.4-0.2c-0.3-0.4-0.7-0.8-1.1-1.1C241.3,246.1,241.3,249.3,241.3,249.4L241.3,249.4z
				 M238.9,240.7c-0.2-0.5-0.7-1.2-0.8-1.4c-0.1-0.1-0.1-0.2-0.1-0.3c0-0.3,0.3-0.5,0.6-0.5c0.6,0,1.4,1.5,1.4,1.8
				c0,0.4-0.3,0.6-0.6,0.6C239.1,241,239,240.9,238.9,240.7z M241.9,241c-0.2,0-0.5-0.2-0.5-0.4c0-0.1,0-0.2,0.1-0.3
				c0.2-0.4,0.7-1,0.9-1.5c0.1-0.2,0.2-0.3,0.4-0.3c0.3,0,0.6,0.2,0.6,0.6c0,0.4-0.8,1.4-1.1,1.7C242.2,240.9,242,241,241.9,241z
				 M247.6,245.8l-3.9,1.1c-0.1,0-0.1,0-0.2,0c-0.3,0-0.5-0.3-0.5-0.5s0.1-0.5,0.4-0.5l4.2-1.2v-7c0-0.4,0.3-0.5,0.6-0.5
				s0.6,0.2,0.6,0.5v6.7l1.5-0.4c0.1,0,0.1,0,0.2,0c0.3,0,0.5,0.3,0.5,0.6c0,0.2-0.1,0.4-0.4,0.5l-1.8,0.5v3.9
				c0,0.3-0.3,0.5-0.6,0.5s-0.6-0.2-0.6-0.5V245.8z M245.6,243.6c-0.5-0.4-1.1-0.8-1.5-1c-0.2-0.1-0.3-0.2-0.3-0.4
				c0-0.3,0.2-0.5,0.6-0.5c0.1,0,2.1,0.6,2.1,1.5c0,0.3-0.2,0.6-0.6,0.6C245.9,243.7,245.8,243.7,245.6,243.6z M245.7,240.6
				c-0.4-0.5-1.1-0.9-1.4-1.1c-0.2-0.1-0.2-0.2-0.2-0.4c0-0.3,0.3-0.5,0.6-0.5c0.2,0,2,0.8,2,1.6c0,0.3-0.3,0.6-0.6,0.6
				C246,240.8,245.9,240.7,245.7,240.6z"/>
			<path class="st1" d="M252.6,249.8c0-0.1,0.1-0.3,0.2-0.3c2.4-1.3,3.6-3.7,3.6-6.1s-1.2-4.8-3.6-6c-0.2-0.1-0.2-0.2-0.2-0.3
				c0-0.2,0.1-0.4,0.4-0.4c0.4,0,4.1,2.1,4.1,6.7c0,4.7-3.8,6.7-4.2,6.7C252.7,250,252.6,249.9,252.6,249.8z"/>
		</g>
	</g>
</g>
<g class="st2">
	<path class="st1" d="M38,174.3c-0.8-0.6-1.4-0.8-2.2-1.1c-0.3-0.1-0.4-0.3-0.4-0.5c0-0.3,0.3-0.7,0.7-0.7s1.7,0.4,2.6,1
		c0.2,0.2,0.3,0.4,0.3,0.6c0,0.4-0.3,0.8-0.7,0.8C38.2,174.4,38.1,174.4,38,174.3z M36.4,181.9c-0.4,0-0.8-0.3-0.8-0.7
		c0-0.1,0.1-0.3,0.2-0.4c1-1.2,1.7-2.4,2.4-4.2c0.1-0.3,0.4-0.4,0.6-0.4c0.4,0,0.7,0.3,0.7,0.7c0,0.5-1.1,3-2.4,4.7
		C36.9,181.8,36.6,181.9,36.4,181.9z M38.5,170.6c-0.7-0.8-1.2-1-1.9-1.4c-0.2-0.1-0.3-0.3-0.3-0.4c0-0.3,0.3-0.7,0.8-0.7
		s2.7,1.2,2.7,2c0,0.4-0.4,0.8-0.8,0.8C38.8,170.8,38.7,170.8,38.5,170.6z M44.5,173.5l-2,1v4.9c0,1.1,1.1,1.1,2.5,1.1
		c3.1,0,3.7-0.2,3.7-1.9c0-0.5,0.3-0.6,0.6-0.6c0.1,0,0.8,0,0.8,0.8c0,3-2.2,3-5,3c-2.6,0-4-0.4-4-2.1c0-1,0-2.7,0-4.5l-1.4,0.7
		c-0.1,0.1-0.2,0.1-0.3,0.1c-0.3,0-0.6-0.3-0.6-0.6c0-0.2,0.1-0.4,0.4-0.6l1.9-1c0-1.6,0-3.1,0-4.1c0-0.4,0.3-0.6,0.7-0.6
		s0.7,0.2,0.7,0.6l0,0c0,0.8,0,2.1,0,3.5l2-1v-3.9c0-0.4,0.3-0.6,0.7-0.6c0.3,0,0.7,0.2,0.7,0.6v3.3c0.5-0.3,0.9-0.5,1.1-0.6
		c0.3-0.2,0.6-0.3,1-0.3c0.7,0,1.3,0.5,1.4,1.4c0,0.2,0,0.4,0,0.7c0,4-0.4,5.1-2.1,5.1c-0.4,0-1,0-1-0.7c0-0.3,0.2-0.6,0.5-0.6h0.1
		c0.1,0,0.2,0.1,0.3,0.1c0.4,0,0.8-0.4,0.8-3.1c0-0.8,0-1.4-0.4-1.4c-0.1,0-0.1,0-1.8,0.9v5.6c0,0.4-0.3,0.6-0.7,0.6
		c-0.3,0-0.7-0.2-0.7-0.6L44.5,173.5L44.5,173.5z"/>
</g>
<g class="st2">
	<path class="st1" d="M56.4,171.2c-1.8,1.3-2.1,1.3-2.3,1.3c-0.4,0-0.7-0.3-0.7-0.7c0-0.2,0.1-0.4,0.4-0.6c1.6-0.7,3.3-2.1,4.5-3.7
		c0.1-0.2,0.3-0.3,0.5-0.3c0.4,0,0.7,0.4,0.7,0.7c0,0.2-0.1,0.5-1.8,2l-0.1,4c0,0.4-0.4,0.7-0.7,0.7c-0.4,0-0.7-0.2-0.7-0.6v-0.1
		L56.4,171.2z M62.4,176.4c0.2,0.6,0.5,1.2,0.9,1.7c0.7-0.3,2.1-0.8,2.8-1.1c0.1-0.1,0.2-0.1,0.3-0.1c0.4,0,0.7,0.3,0.7,0.7
		c0,0.5-0.3,0.6-3,1.5c1,0.9,2.3,1.4,3.9,1.7c0.4,0.1,0.5,0.4,0.5,0.7c0,0.4-0.2,0.7-0.7,0.7c-0.2,0-5-0.5-6.6-5.6
		c-0.5,0.4-0.9,0.7-1.4,1v2.5c0.7-0.2,1.3-0.4,1.8-0.5c0.1,0,0.2-0.1,0.3-0.1c0.4,0,0.6,0.3,0.6,0.6c0,0.2-0.2,0.5-0.5,0.6
		c-2,0.7-5.6,1.6-6.1,1.6s-0.7-0.3-0.7-0.7c0-0.3,0.2-0.6,0.6-0.7c0.9-0.2,1.9-0.3,2.9-0.6v-2c-1.6,0.9-3.8,1.7-4.2,1.7
		s-0.7-0.3-0.7-0.7c0-0.3,0.1-0.5,0.5-0.6c2-0.5,3.5-1.2,5.1-2.2l-4.7,0.1l0,0c-0.4,0-0.6-0.3-0.6-0.6s0.2-0.6,0.6-0.6h5.7V174l0,0
		c0-0.3,0.3-0.5,0.7-0.5c0.3,0,0.7,0.2,0.7,0.5l0,0v1.4h5.8c0.4,0,0.6,0.3,0.6,0.6s-0.2,0.6-0.6,0.6L62.4,176.4z M63.4,170.9
		c1.1,2.2,2.7,2.4,2.8,2.4c0.4,0,0.7-0.3,0.9-1.2c0.1-0.3,0.3-0.5,0.6-0.5c0.3,0,0.7,0.3,0.7,0.6c0,0.1-0.3,2.4-2.1,2.4
		c-0.8,0-2.9-0.8-4.2-3.5l-3.1,0.4h-0.1c-0.4,0-0.6-0.3-0.6-0.6s0.2-0.5,0.5-0.6l2.8-0.4c-0.4-1-0.6-2-0.6-2.2
		c0-0.4,0.3-0.6,0.7-0.6c0.3,0,0.6,0.1,0.6,0.4c0.2,0.7,0.4,1.4,0.6,2.1l4.2-0.6h0.1c0.4,0,0.6,0.3,0.6,0.6s-0.2,0.5-0.5,0.5
		L63.4,170.9z M65,169c-0.5-0.4-1-0.6-1.5-0.8c-0.3-0.1-0.4-0.3-0.4-0.5c0-0.3,0.2-0.5,0.6-0.5c0.6,0,1.8,0.7,1.9,0.8
		c0.2,0.1,0.3,0.3,0.3,0.5c0,0.3-0.3,0.6-0.6,0.6C65.3,169.2,65.2,169.1,65,169z"/>
</g>
<g class="st2">
	<path class="st1" d="M72.4,176.2c-0.4,0-0.7-0.3-0.7-0.7c0-0.2,0.1-0.5,0.4-0.7c1.7-1.1,3.9-4.1,4.7-5.5c0.1-0.3,0.4-0.4,0.6-0.4
		c0.4,0,0.8,0.3,0.8,0.7c0,0.2-0.1,0.3-0.2,0.5l-0.3,0.4c0.2,0,2.2-0.2,2.6-0.2c1,0,1.7,0.5,1.7,1.3c0,0.2-0.1,0.4-0.2,0.6
		c-2,3.8-4.5,7.4-9.2,9.3c-0.2,0.1-0.4,0.1-0.5,0.1c-0.5,0-0.8-0.3-0.8-0.7c0-0.3,0.2-0.6,0.7-0.8c5.4-1.9,8.1-7.7,8.1-8.1
		c0-0.2-0.2-0.4-0.5-0.4c-0.7,0-2.9,0.2-3,0.2C75.6,173.5,73.3,176.2,72.4,176.2z M83.1,170.5c-0.3-0.3-1.1-0.9-1.5-1.1
		c-0.2-0.1-0.3-0.3-0.3-0.4c0-0.3,0.3-0.5,0.6-0.5c0.1,0,2.2,0.7,2.2,1.6c0,0.4-0.3,0.6-0.6,0.6C83.3,170.7,83.2,170.7,83.1,170.5z
		 M84.5,169.1c-0.3-0.3-1.1-0.9-1.5-1c-0.3-0.1-0.4-0.3-0.4-0.4c0-0.3,0.3-0.5,0.6-0.5c0.3,0,2.2,0.7,2.2,1.5c0,0.4-0.3,0.7-0.6,0.7
		C84.8,169.3,84.7,169.2,84.5,169.1z"/>
</g>
<g class="st2">
	<path class="st1" d="M88.3,176.4c-0.4,0-0.7-0.2-0.7-0.7v-0.1c0-0.7,0.1-1.5,0.1-2.3c0-1.3,0-2.7-0.1-3.7v-0.1
		c0-0.4,0.4-0.7,0.7-0.7s0.7,0.2,0.8,0.7c0.1,1,0.1,2.4,0.1,3.8c0,0.9,0,1.7,0,2.3C89.1,176.2,88.6,176.4,88.3,176.4z M93.7,170.1
		c0,1.3,0.1,2.8,0.1,4c0,2.9-0.9,5.8-4.4,7.9c-0.2,0.1-0.4,0.2-0.6,0.2c-0.5,0-0.7-0.3-0.7-0.7c0-0.3,0.1-0.5,0.4-0.7
		c3.1-1.7,3.8-4,3.8-6.6c0-1.3-0.1-3.5-0.1-4.8c0-0.5,0.4-0.7,0.8-0.7s0.8,0.2,0.8,0.7v0.7L93.7,170.1L93.7,170.1z"/>
</g>
<g class="st2">
	<path class="st1" d="M100.9,175.4c-0.5,0-0.8-0.3-0.8-0.7s0.3-0.7,0.8-0.7h10.7c0.5,0,0.7,0.4,0.7,0.7c0,0.4-0.2,0.7-0.7,0.7H100.9
		z"/>
</g>
<g class="st2">
	<path class="st1" d="M119.2,173.9c-0.6-0.6-1.8-1.2-2.6-1.4c-0.3-0.1-0.5-0.3-0.5-0.6c0-0.4,0.3-0.8,0.8-0.8c0.3,0,2.1,0.5,3.3,1.5
		c0.2,0.2,0.3,0.4,0.3,0.6c0,0.5-0.4,0.9-0.9,0.9C119.6,174.1,119.4,174,119.2,173.9z M117.6,181c-0.5,0-0.9-0.4-0.9-0.8
		c0-0.3,0.2-0.7,0.7-0.8c3.5-0.9,6.9-4.1,8.6-7.5c0.2-0.3,0.4-0.5,0.7-0.5c0.4,0,0.8,0.3,0.8,0.7c0,0.2-0.1,0.3-0.2,0.5
		C123.9,179.3,118.1,181,117.6,181z"/>
</g>
<g class="st2">
	<path class="st1" d="M145.3,173.2l-5.4-0.1c1,3.6,3.4,6.1,6.1,7.2c0.3,0.1,0.5,0.4,0.5,0.6c0,0.5-0.4,0.9-0.9,0.9
		c-0.9,0-4.9-2.8-6.5-7.1c-1,3-3,5.7-6.4,7.2c-0.1,0.1-0.3,0.1-0.4,0.1c-0.5,0-0.8-0.4-0.8-0.8c0-0.3,0.2-0.5,0.5-0.7
		c3.8-1.6,5.4-4.5,6-7.5l-5.4,0.1l0,0c-0.5,0-0.7-0.3-0.7-0.7s0.2-0.7,0.7-0.7h5.6c0.1-1.3,0.1-1.5,0.1-2.1c0-0.5,0-1,0-1.4l0,0
		c0-0.5,0.4-0.7,0.8-0.7c0.4,0,0.8,0.2,0.8,0.7c0,0.4,0,1.7-0.1,3.5h5.6c0.5,0,0.7,0.4,0.7,0.7C146,172.8,145.8,173.2,145.3,173.2
		L145.3,173.2z"/>
</g>
<g class="st2">
	<path class="st1" d="M149.4,182.1c-0.4,0-0.8-0.4-0.8-0.8c0-0.2,0.1-0.4,0.4-0.6c0.9-0.5,1.7-1.1,2.4-1.8c0-0.8,0-1.5,0-2.2V176
		c0-0.4-0.2-0.6-0.9-0.6h-0.7c-0.4,0-0.9,0-0.9-0.6c0-0.3,0.2-0.7,0.6-0.7c0.6,0,1,0,1.6,0c1.1,0,1.6,0.5,1.6,1.5s0,2.2,0,3.3
		c1.1,1.4,2.7,1.8,5.3,1.8c1.7,0,3.6-0.2,4.9-0.3h0.1c0.4,0,0.7,0.3,0.7,0.7c0,0.3-0.2,0.7-0.7,0.7c-1.1,0.1-2.7,0.2-4.3,0.2
		c-3.5,0-5-0.3-6.7-2.1C151.1,181.1,150,182.1,149.4,182.1z M151.7,170.9c-0.5-0.7-1.3-1.3-1.8-1.6c-0.2-0.1-0.3-0.3-0.3-0.4
		c0-0.3,0.4-0.7,0.7-0.7c0.5,0,2.1,1.2,2.4,1.7c0.1,0.2,0.2,0.3,0.2,0.5c0,0.4-0.4,0.8-0.8,0.8C152.1,171.2,151.9,171.2,151.7,170.9
		z M161.3,176.7H159v2.6c0,0.4-0.3,0.6-0.6,0.6s-0.6-0.2-0.6-0.6v-2.6h-2.2c0,0.8,0,1.7,0,2.5l0,0c0,0.4-0.3,0.6-0.6,0.6
		s-0.6-0.2-0.6-0.6c0-1,0-2,0-3c0-1.3,0-2.6,0-3.8c0-1,0.6-1.5,1.7-1.5h1.7c-0.4-0.3-0.7-0.4-1-0.5c-0.2-0.1-0.3-0.2-0.3-0.3
		c0-0.3,0.3-0.6,0.6-0.6c0.2,0,0.8,0.3,1.3,0.6c0.3-0.1,1.7-0.9,1.7-1.1c0-0.1-0.1-0.1-0.2-0.1c-1.2,0-3.6,0-5,0.1l0,0
		c-0.3,0-0.5-0.3-0.5-0.6s0.2-0.6,0.5-0.6c1.1,0,1.9,0,5.6,0c0.9,0,1.5,0.4,1.5,0.9c0,0.3-0.1,0.5-0.5,0.8c-0.6,0.4-1.7,1.1-2.3,1.3
		l0,0c0.6,0,1.2,0,1.9,0c1.6,0,1.6,1.2,1.6,2c0,0.6,0,1.3,0,1.9c0,0.1,0.1,2.3,0.1,2.9v0.1c0,1-0.6,1.8-1.8,1.8
		c-0.6,0-1.1-0.1-1.1-0.7c0-0.3,0.2-0.6,0.5-0.6h0.1c0.2,0,0.3,0.1,0.4,0.1c0.3,0,0.6-0.2,0.6-0.9L161.3,176.7z M157.8,174.3h-2.2
		v1.4h2.2V174.3z M157.8,172c-0.5,0-1.1,0-1.5,0c-0.5,0-0.7,0.3-0.7,0.7v0.7h2.2V172z M161.3,173.4c0-0.2,0-0.5,0-0.7
		c0-0.7-0.4-0.7-2.3-0.7v1.4H161.3z M159,174.3v1.4h2.3c0-0.5,0-0.9,0-1.4H159z"/>
</g>
<g class="st2">
	<path class="st1" d="M167.3,182.3c-0.4,0-0.7-0.3-0.7-0.6s0.2-0.5,0.5-0.8c2.1-1.4,3.5-3.9,3.5-6.6c0-0.4-0.1-3.7-1.7-3.7
		c-1.2,0-2.1,1.4-2.1,3.5c0,0.3,0,0.6,0,1v0.1c0,0.7-0.4,1-0.8,1c-0.7,0-0.8-0.6-0.8-1.3c0-1.2,0.2-2.5,0.4-3.4s0.5-2,0.6-3.1
		c0.1-0.4,0.4-0.6,0.7-0.6c0.4,0,0.7,0.2,0.7,0.7c0,0.2-0.2,1.1-0.4,1.8c-0.1,0.2-0.1,0.2-0.1,0.3l0,0c0,0,0.1-0.1,0.2-0.2
		c0.7-1,1.6-1,1.8-1c2.7,0,3,4.1,3,5.1c0,2.7-1.1,5.5-4,7.6C167.9,182.2,167.6,182.3,167.3,182.3z"/>
	<path class="st1" d="M176.3,181.9c-0.1,0.1-0.2,0.1-0.3,0.1c-0.3,0-0.5-0.3-0.5-0.5c0-0.1,0-0.2,0.1-0.3l13.8-13.8
		c0.1-0.1,0.2-0.1,0.3-0.1c0.3,0,0.5,0.3,0.5,0.5c0,0.1,0,0.2-0.1,0.3L176.3,181.9z"/>
	<path class="st1" d="M206.2,180L206.2,180c0,1.1-0.6,2.2-2.6,2.2c-1.7,0-2-0.4-2-0.9c0-0.3,0.2-0.6,0.6-0.6h0.1
		c0.4,0.1,0.8,0.1,1.2,0.1c0.7,0,1.2-0.2,1.3-1v-1.4c0-1.5,0-3.1-0.1-4.4c0-0.8-0.3-1.2-1.2-1.2c-1.2,0-2.4,0-3.7,0s-2.4,0-3.5,0
		c-1,0-1.2,0.3-1.2,1.2c0,2.2,0,5.1,0,7.8c0,0.4-0.3,0.6-0.7,0.6s-0.7-0.2-0.7-0.6c0-2.6,0.1-5.9,0.1-8.4c0-1,0.7-1.7,2-1.7
		c1.1,0,2.3-0.1,3.5-0.1v-1.4h-5.9c-0.4,0-0.7-0.3-0.7-0.6s0.2-0.6,0.7-0.6h5.7v-1.1c0-0.5,0.4-0.7,0.7-0.7c0.4,0,0.7,0.2,0.7,0.7
		v1.1h5.8c0.4,0,0.6,0.3,0.6,0.6s-0.2,0.6-0.6,0.6h-5.8v1.4c1.2,0,2.4,0,3.6,0.1c1,0,1.9,0.7,1.9,1.8c0,1.3,0,4.1,0.1,4.9L206.2,180
		z M200.6,178.8v2.4c0,0.4-0.3,0.6-0.7,0.6c-0.3,0-0.7-0.2-0.7-0.6v-2.4h-2.6c-0.4,0-0.6-0.3-0.6-0.6s0.2-0.6,0.6-0.6h2.6v-1.3h-2.8
		c-0.4,0-0.6-0.3-0.6-0.5c0-0.3,0.2-0.5,0.6-0.5h1.9c-0.1,0-0.3-0.1-0.3-0.3c-0.2-0.5-0.5-0.9-0.7-1.1c-0.1-0.1-0.1-0.2-0.1-0.2
		c0-0.3,0.3-0.5,0.7-0.5c0.6,0,1.3,1.3,1.3,1.5c0,0.3-0.3,0.6-0.6,0.7h1.2h0.4v-0.1c0.3-0.5,0.6-1.1,0.8-1.8
		c0.1-0.2,0.3-0.3,0.5-0.3c0.3,0,0.7,0.2,0.7,0.6c0,0.2-0.4,1-0.7,1.6h1.7c0.4,0,0.6,0.3,0.6,0.5c0,0.3-0.2,0.5-0.6,0.5h-2.7v1.3
		h2.6c0.4,0,0.6,0.3,0.6,0.6s-0.2,0.6-0.6,0.6L200.6,178.8L200.6,178.8z"/>
	<path class="st1" d="M212.1,174.3c-0.8-0.6-1.4-0.8-2.2-1.1c-0.3-0.1-0.4-0.3-0.4-0.5c0-0.3,0.3-0.7,0.7-0.7s1.7,0.4,2.6,1
		c0.2,0.2,0.3,0.4,0.3,0.6c0,0.4-0.3,0.8-0.7,0.8C212.4,174.4,212.3,174.4,212.1,174.3z M210.6,181.9c-0.4,0-0.8-0.3-0.8-0.7
		c0-0.1,0.1-0.3,0.2-0.4c1-1.2,1.7-2.4,2.4-4.2c0.1-0.3,0.4-0.4,0.6-0.4c0.4,0,0.7,0.3,0.7,0.7c0,0.5-1.1,3-2.4,4.7
		C211.1,181.8,210.8,181.9,210.6,181.9z M212.7,170.6c-0.7-0.8-1.2-1-1.9-1.4c-0.2-0.1-0.3-0.3-0.3-0.4c0-0.3,0.3-0.7,0.8-0.7
		s2.7,1.2,2.7,2c0,0.4-0.4,0.8-0.8,0.8C213,170.8,212.9,170.8,212.7,170.6z M218.7,173.5l-2,1v4.9c0,1.1,1.1,1.1,2.5,1.1
		c3.1,0,3.7-0.2,3.7-1.9c0-0.5,0.3-0.6,0.6-0.6c0.1,0,0.8,0,0.8,0.8c0,3-2.2,3-5,3c-2.6,0-4-0.4-4-2.1c0-1,0-2.7,0-4.5l-1.4,0.7
		c-0.1,0.1-0.2,0.1-0.3,0.1c-0.3,0-0.6-0.3-0.6-0.6c0-0.2,0.1-0.4,0.4-0.6l1.9-1c0-1.6,0-3.1,0-4.1c0-0.4,0.3-0.6,0.7-0.6
		c0.3,0,0.7,0.2,0.7,0.6l0,0c0,0.8,0,2.1,0,3.5l2-1v-3.9c0-0.4,0.3-0.6,0.7-0.6c0.3,0,0.7,0.2,0.7,0.6v3.3c0.5-0.3,0.9-0.5,1.1-0.6
		c0.3-0.2,0.6-0.3,1-0.3c0.7,0,1.3,0.5,1.4,1.4c0,0.2,0,0.4,0,0.7c0,4-0.4,5.1-2.1,5.1c-0.4,0-1,0-1-0.7c0-0.3,0.2-0.6,0.5-0.6h0.1
		c0.1,0,0.2,0.1,0.3,0.1c0.4,0,0.8-0.4,0.8-3.1c0-0.8,0-1.4-0.4-1.4c-0.1,0-0.1,0-1.8,0.9v5.6c0,0.4-0.3,0.6-0.7,0.6
		c-0.3,0-0.7-0.2-0.7-0.6v-5.2L218.7,173.5L218.7,173.5z"/>
	<path class="st1" d="M229.3,171.2c-1.8,1.3-2.1,1.3-2.3,1.3c-0.4,0-0.7-0.3-0.7-0.7c0-0.2,0.1-0.4,0.4-0.6c1.6-0.7,3.3-2.1,4.5-3.7
		c0.1-0.2,0.3-0.3,0.5-0.3c0.4,0,0.7,0.4,0.7,0.7c0,0.2-0.1,0.5-1.8,2l-0.1,4c0,0.4-0.4,0.7-0.7,0.7c-0.4,0-0.7-0.2-0.7-0.6v-0.1
		L229.3,171.2z M235.3,176.4c0.2,0.6,0.5,1.2,0.9,1.7c0.7-0.3,2.1-0.8,2.8-1.1c0.1-0.1,0.2-0.1,0.3-0.1c0.4,0,0.7,0.3,0.7,0.7
		c0,0.5-0.3,0.6-3,1.5c1,0.9,2.3,1.4,3.9,1.7c0.4,0.1,0.5,0.4,0.5,0.7c0,0.4-0.2,0.7-0.7,0.7c-0.2,0-5-0.5-6.6-5.6
		c-0.5,0.4-0.9,0.7-1.4,1v2.5c0.7-0.2,1.3-0.4,1.8-0.5c0.1,0,0.2-0.1,0.3-0.1c0.4,0,0.6,0.3,0.6,0.6c0,0.2-0.2,0.5-0.5,0.6
		c-2,0.7-5.6,1.6-6.1,1.6s-0.7-0.3-0.7-0.7c0-0.3,0.2-0.6,0.6-0.7c0.9-0.2,1.9-0.3,2.9-0.6v-2c-1.6,0.9-3.8,1.7-4.2,1.7
		s-0.7-0.3-0.7-0.7c0-0.3,0.1-0.5,0.5-0.6c2-0.5,3.5-1.2,5.1-2.2l-4.7,0.1l0,0c-0.4,0-0.6-0.3-0.6-0.6s0.2-0.6,0.6-0.6h5.7V174l0,0
		c0-0.3,0.3-0.5,0.7-0.5c0.3,0,0.7,0.2,0.7,0.5l0,0v1.4h5.8c0.4,0,0.6,0.3,0.6,0.6s-0.2,0.6-0.6,0.6L235.3,176.4z M236.3,170.9
		c1.1,2.2,2.7,2.4,2.8,2.4c0.4,0,0.7-0.3,0.9-1.2c0.1-0.3,0.3-0.5,0.6-0.5s0.7,0.3,0.7,0.6c0,0.1-0.3,2.4-2.1,2.4
		c-0.8,0-2.9-0.8-4.2-3.5l-3.1,0.4h-0.1c-0.4,0-0.6-0.3-0.6-0.6s0.2-0.5,0.5-0.6l2.8-0.4c-0.4-1-0.6-2-0.6-2.2
		c0-0.4,0.3-0.6,0.7-0.6c0.3,0,0.6,0.1,0.6,0.4c0.2,0.7,0.4,1.4,0.6,2.1l4.2-0.6h0.1c0.4,0,0.6,0.3,0.6,0.6s-0.2,0.5-0.5,0.5
		L236.3,170.9z M237.9,169c-0.5-0.4-1-0.6-1.5-0.8c-0.3-0.1-0.4-0.3-0.4-0.5c0-0.3,0.2-0.5,0.6-0.5c0.6,0,1.8,0.7,1.9,0.8
		c0.2,0.1,0.3,0.3,0.3,0.5c0,0.3-0.3,0.6-0.6,0.6C238.2,169.2,238,169.1,237.9,169z"/>
	<path class="st1" d="M243.7,175.6c0-0.2,0.1-0.5,0.4-0.6c1.7-1,2.6-2.4,3.4-3.9c0.2-0.3,0.4-0.4,0.7-0.4c0.4,0,0.8,0.3,0.8,0.7
		c0,0.8-3.2,4.9-4.5,4.9C244,176.3,243.7,175.9,243.7,175.6z M245.5,181.7c-0.5,0-0.7-0.4-0.7-0.7s0.2-0.7,0.7-0.7
		c0.6,0,1.2-0.1,1.8-0.1c0.7-1.2,1.8-4.1,2.2-6c0.1-0.4,0.4-0.5,0.7-0.5c0.4,0,0.9,0.3,0.9,0.7c0,0.6-1.7,4.7-2.2,5.6
		c1.9-0.2,3.7-0.5,5.3-0.8c-0.4-0.6-0.9-1.2-1.4-1.7c-0.2-0.2-0.2-0.3-0.2-0.5c0-0.4,0.3-0.6,0.7-0.6c0.2,0,0.4,0.1,0.5,0.2
		c1.6,1.5,3,3.6,3,4.3c0,0.5-0.4,0.9-0.9,0.9c-0.3,0-0.6-0.2-0.7-0.5c-0.1-0.3-0.3-0.6-0.4-0.9C251.6,181.1,246.7,181.7,245.5,181.7
		z M248.9,169.7L248.9,169.7c-0.5,0-0.7-0.3-0.7-0.7s0.2-0.7,0.7-0.7l2.7-0.1h0.1c0.8,0,1.5,0.3,1.9,1.1c1,2,2.2,3.6,4.3,4.8
		c0.3,0.2,0.4,0.4,0.4,0.7c0,0.4-0.4,0.9-0.9,0.9c-0.8,0-3.3-2.2-4.9-5.5c-0.2-0.4-0.6-0.6-1.1-0.6h-0.1L248.9,169.7z"/>
	<path class="st1" d="M272.7,181.7c-1.4,0-2.9,0.1-4.4,0.1c-1.7,0-3.4,0-5-0.1c-1.5,0-2.2-0.8-2.2-2c0-1.3-0.1-2.8-0.1-4.3
		c0-2,0-4,0.1-5.7c0-1,0.8-1.8,2.1-1.8c1.5,0,3.1-0.1,4.7-0.1s3.3,0,4.8,0.1c1.1,0,2,0.8,2,2c0,1.7,0.1,3.6,0.1,5.5
		c0,1.5,0,3-0.1,4.3C274.8,180.8,273.9,181.7,272.7,181.7z M267.9,180.5c1.4,0,2.8,0,4.2,0c1,0,1.3-0.5,1.4-1.3
		c0.1-1.4,0.1-2.9,0.1-4.5s0-3.1-0.1-4.4c0-0.9-0.4-1.2-1.3-1.2c-1.3,0-2.8,0-4.2,0c-1.4,0-2.9,0-4.1,0c-1,0-1.3,0.4-1.3,1.2
		c0,1.4-0.1,3-0.1,4.5c0,1.6,0,3.1,0.1,4.4c0,0.9,0.3,1.2,1.5,1.2C265.2,180.5,266.5,180.5,267.9,180.5z M266.9,177.6
		c-1.8,1.4-3.1,1.9-3.3,1.9c-0.4,0-0.6-0.3-0.6-0.6c0-0.2,0.1-0.4,0.3-0.4c1.2-0.4,2.2-0.9,3.2-1.8c-2.2,0-2.4-0.3-2.4-1.3
		c0-1.5,0.2-1.5,3.6-1.5c3.5,0,3.6,0,3.6,1.5c0,1.1-0.1,1.4-2.9,1.4c0.3,0.4,0.7,0.7,1.1,0.9c0.5-0.2,1.1-0.5,1.6-0.9
		c0.1-0.1,0.2-0.1,0.3-0.1c0.3,0,0.6,0.2,0.6,0.5c0,0.2,0,0.4-1.6,1.1c0.6,0.3,1.2,0.5,1.7,0.6c0.2,0.1,0.4,0.2,0.4,0.4
		c0,0.3-0.2,0.6-0.6,0.6c-0.2,0-2.5-0.6-4-2.4v2.2c0,0.3-0.3,0.4-0.6,0.4c-0.3,0-0.6-0.2-0.6-0.4L266.9,177.6z M263.6,173.2
		c-0.3,0-0.5-0.2-0.5-0.5c0-0.2,0.2-0.5,0.5-0.5h3.7v-0.8h-2.9c-0.3,0-0.5-0.2-0.5-0.5c0-0.2,0.2-0.5,0.5-0.5h2.8v-0.5
		c0-0.4,0.3-0.6,0.7-0.6c0.3,0,0.7,0.2,0.7,0.6v0.5h2.8c0.3,0,0.5,0.2,0.5,0.5c0,0.2-0.2,0.5-0.5,0.5h-2.9v0.8h3.7
		c0.3,0,0.5,0.2,0.5,0.5c0,0.2-0.2,0.5-0.5,0.5H263.6z M270.2,175.2c0-0.4,0-0.5-0.6-0.5c-0.5,0-1.3,0-2.1,0c-1.9,0-2,0-2.1,0.3v0.5
		c0,0.3,0.2,0.3,2.3,0.3s2.4,0,2.4-0.3C270.2,175.4,270.2,175.3,270.2,175.2z"/>
</g>
<g>
	<g class="st2">
		<path class="st1" d="M26,171.7h1.2l-1.5,5c-0.1,0.4-0.2,0.7-0.2,1c0,0.4,0.1,0.5,0.4,0.6c0.3,0,0.6-0.1,0.9-0.4
			c0.3-0.2,0.5-0.6,0.8-1c0.5-0.9,0.8-1.8,0.8-2.8c0-1.3-0.5-2.3-1.4-3.1s-2.1-1.2-3.6-1.2c-1.8,0-3.2,0.6-4.1,1.6
			c-1,1.1-1.5,2.3-1.5,3.8c0,1.6,0.5,2.9,1.6,3.9c1,1.1,2.4,1.6,4.1,1.6c1.1,0,2-0.2,2.8-0.5s1.4-0.7,1.9-1.3h1.2
			c-1.4,2.2-3.4,3.3-6.2,3.3c-2,0-3.7-0.7-4.9-2c-1.3-1.3-2-3-2-5.1s0.7-3.7,2-5s3-1.9,5-1.9c1.8,0,3.4,0.5,4.6,1.6s1.9,2.4,1.9,4.2
			c0,1.6-0.5,2.9-1.5,3.9c-0.9,1-1.8,1.5-2.7,1.5c-0.8,0-1.3-0.4-1.5-1.2l0,0c-0.2,0.3-0.5,0.6-0.9,0.8c-0.4,0.3-0.8,0.4-1.5,0.4
			c-0.8,0-1.4-0.3-1.9-0.9c-0.5-0.6-0.8-1.2-0.8-2c0-1.3,0.4-2.5,1.2-3.6c0.8-1.1,1.9-1.6,3.2-1.7c0.9,0,1.6,0.5,2.1,1.5l0,0
			L26,171.7z M20.7,176.3c0,0.5,0.2,1,0.5,1.3s0.7,0.5,1.1,0.5s0.8-0.1,1.1-0.4c0.3-0.3,0.6-0.6,0.9-1c0.5-0.9,0.8-1.7,0.8-2.5
			c0-0.5-0.1-0.9-0.4-1.2s-0.6-0.5-1.1-0.5c-0.4,0-0.8,0.1-1.2,0.4c-0.4,0.2-0.7,0.6-0.9,1C21,174.6,20.7,175.5,20.7,176.3z"/>
	</g>
</g>
<g>
	<path class="st1" d="M19.4,45.8l16.7-21.6c0.6-0.9,1.1-1.7,1.3-2.4s0.2-1.4,0.2-2c0-1.7-0.5-3.1-1.5-4.3s-2.5-1.9-4.4-1.9
		c-1.7,0-3.1,0.6-4.2,1.7c-1.2,1.1-1.8,2.7-2.1,4.7h-6.1c0.2-3.7,1.3-6.7,3.6-9.1c2.2-2.3,5-3.5,8.3-3.6c3.7,0,6.7,1.3,8.9,3.6
		c2.3,2.4,3.5,5.4,3.5,9c0,2.9-0.9,5.5-2.6,7.7L27.4,45.5h16.3v6.3H19.4V45.8z"/>
	<path class="st1" d="M51.3,20c0-4.1,1.3-7.2,3.8-9.4c2.3-2.2,5.1-3.3,8.3-3.3c3.3,0,6.1,1.1,8.5,3.3c2.4,2.2,3.6,5.3,3.7,9.4v19.4
		c-0.1,4-1.3,7.2-3.7,9.4c-2.3,2.2-5.1,3.3-8.5,3.3c-3.2,0-6-1.1-8.3-3.3c-2.5-2.2-3.7-5.3-3.8-9.4C51.3,39.4,51.3,20,51.3,20z
		 M69.4,20.4c-0.1-4.4-2.1-6.7-6-6.8c-3.9,0.1-5.9,2.3-6,6.8v18.7c0.1,4.5,2.1,6.7,6,6.8c3.9,0,5.9-2.3,6-6.8V20.4z"/>
	<path class="st1" d="M89.5,14.4L83.4,19v-6.7l6.1-4.5h6.1v44.1h-6.1V14.4z"/>
	<path class="st1" d="M107,20c0-4.1,1.3-7.2,3.8-9.4c2.3-2.2,5.1-3.3,8.3-3.3c3.3,0,6.1,1.1,8.5,3.3c2.4,2.2,3.6,5.3,3.7,9.4v19.4
		c-0.1,4-1.3,7.2-3.7,9.4c-2.3,2.2-5.1,3.3-8.5,3.3c-2.8,0-5.4-0.9-7.6-2.7c-2.2-1.7-3.7-4.1-4.3-7.3h6.3c1,2.5,2.8,3.7,5.6,3.7
		c3.9,0,5.9-2.3,6-6.8v-4.2c-2.9,0.9-5.6,1.4-8.2,1.4c-2.8,0-5.1-0.9-7.1-3c-2-2-2.9-5.1-2.9-9.3L107,20L107,20z M113.1,24
		c0.1,4.5,2.1,6.7,6,6.8c3.9,0,5.9-2.3,6-6.8v-3.6c-0.1-4.4-2.1-6.7-6-6.8c-3.9,0.1-5.9,2.3-6,6.8V24z"/>
</g>
<g>
	<path class="st1" d="M20.3,72.9l-2.3,1.8v-2.6l2.3-1.7h2.3v16.8h-2.3V72.9z"/>
	<path class="st1" d="M26.2,75.1c0-1.5,0.5-2.7,1.4-3.6c0.9-0.8,1.9-1.2,3.2-1.2c1.3,0,2.3,0.4,3.2,1.2c0.9,0.8,1.4,2,1.4,3.6v7.4
		c0,1.5-0.5,2.7-1.4,3.6c-0.9,0.8-2,1.3-3.2,1.3c-1.2,0-2.3-0.4-3.2-1.3c-0.9-0.8-1.4-2-1.4-3.6V75.1z M33.2,75.2
		c0-1.7-0.8-2.5-2.3-2.6c-1.5,0-2.3,0.9-2.3,2.6v7.1c0,1.7,0.8,2.6,2.3,2.6c1.5,0,2.3-0.9,2.3-2.6V75.2z"/>
	<path class="st1" d="M38.3,84.8h2.3v2.4h-2.3V84.8z"/>
	<path class="st1" d="M45,72.9l-2.3,1.8v-2.6l2.3-1.7h2.3v16.8H45V72.9z"/>
	<path class="st1" d="M50.7,82.3c0-1.6,0.7-2.9,2-3.8c-0.5-0.4-0.9-0.9-1.2-1.5c-0.3-0.5-0.5-1.2-0.5-1.9c0-1.4,0.5-2.6,1.4-3.5
		c0.8-0.9,1.9-1.4,3.3-1.4c1.4,0,2.5,0.5,3.3,1.4c0.9,0.9,1.3,2.1,1.3,3.5c0,0.7-0.1,1.4-0.4,1.9c-0.3,0.6-0.7,1.1-1.2,1.5
		c1.3,0.9,2,2.2,2,3.8c0,1.5-0.5,2.7-1.4,3.6c-1,0.9-2.1,1.4-3.5,1.4c-1.4,0-2.6-0.5-3.5-1.4C51.2,85,50.7,83.8,50.7,82.3z M53,82.3
		c0,0.8,0.3,1.4,0.8,1.9c0.5,0.5,1.1,0.8,1.8,0.8c0.7,0,1.4-0.3,1.9-0.8c0.5-0.5,0.8-1.1,0.8-1.9c0-0.8-0.3-1.4-0.8-1.9
		c-0.5-0.5-1.1-0.7-1.9-0.8c-0.7,0-1.3,0.3-1.8,0.8C53.3,80.8,53,81.5,53,82.3z M53.3,75c0,0.8,0.3,1.4,0.7,1.8
		c0.5,0.4,1,0.6,1.6,0.6c0.6,0,1.2-0.2,1.6-0.6c0.5-0.4,0.7-1,0.7-1.8c0-0.8-0.3-1.4-0.7-1.8c-0.5-0.4-1-0.6-1.6-0.6
		c-0.6,0-1.1,0.2-1.6,0.6C53.6,73.6,53.3,74.2,53.3,75z"/>
	<path class="st1" d="M63.1,84.8h2.3v2.4h-2.3V84.8z"/>
	<path class="st1" d="M68.7,78.6h-1v-1.6h1v-1.3c0-1,0.3-1.7,0.8-2.1c0.5-0.4,1.1-0.6,1.9-0.6h1.3v1.9h-1.1c-0.6,0-0.9,0.3-0.9,0.8
		v1.3h2v1.6h-2v8.6h-2V78.6z"/>
	<path class="st1" d="M74.9,77.1h2v1.1h0c0.6-0.8,1.5-1.2,2.6-1.2c0.8,0,1.5,0.3,2.1,0.8l-1.4,1.8c-0.4-0.3-0.8-0.5-1.3-0.5
		c-0.5,0-0.9,0.2-1.3,0.5c-0.4,0.3-0.6,0.9-0.6,1.6v6.1h-2V77.1z"/>
	<path class="st1" d="M82.4,73h2v2h-2V73z M82.4,77.1h2v10.1h-2V77.1z"/>
	<path class="st1" d="M87.2,85.2h2v2h-2V85.2z"/>
</g>
<g>
	<path class="st1" d="M110.1,72.9l-2.3,1.8v-2.6l2.3-1.7h2.3v16.8h-2.3V72.9z"/>
	<path class="st1" d="M116.1,75.1c0-1.6,0.5-2.7,1.4-3.6c0.9-0.8,1.9-1.2,3.2-1.2c1.1,0,2.1,0.3,2.9,1c0.8,0.7,1.4,1.6,1.6,2.8h-2.4
		c-0.4-0.9-1.1-1.4-2.1-1.4c-1.5,0-2.3,0.9-2.3,2.6v1.6c1.1-0.4,2.1-0.5,3.1-0.5c1.1,0,2,0.4,2.7,1.1c0.7,0.8,1.1,1.9,1.1,3.6v1.5
		c0,1.5-0.5,2.7-1.4,3.6c-0.9,0.8-2,1.3-3.2,1.3c-1.2,0-2.3-0.4-3.2-1.3c-0.9-0.8-1.4-2-1.4-3.6V75.1z M118.5,82.3
		c0,1.7,0.8,2.6,2.3,2.6c1.5,0,2.3-0.9,2.3-2.6V81c0-1.7-0.8-2.5-2.3-2.6c-1.5,0-2.3,0.9-2.3,2.6V82.3z"/>
	<path class="st1" d="M128.2,75.8h2.3v2.4h-2.3V75.8z M128.2,81.2h2.3v2.4h-2.3V81.2z"/>
	<path class="st1" d="M136.3,77.5h0.8c0.8,0,1.4-0.2,1.9-0.7c0.4-0.4,0.7-1,0.7-1.7c0-0.7-0.2-1.3-0.7-1.7c-0.4-0.4-1-0.7-1.7-0.7
		c-0.5,0-1,0.2-1.4,0.5c-0.4,0.3-0.7,0.8-0.9,1.5h-2.3c0.1-1.2,0.6-2.3,1.5-3.1c0.8-0.8,1.8-1.3,3-1.3c1.5,0,2.7,0.5,3.5,1.5
		c0.8,0.9,1.3,2,1.3,3.3c0,0.6-0.1,1.3-0.3,1.9c-0.3,0.6-0.7,1.1-1.4,1.6c0.7,0.5,1.2,1,1.5,1.7c0.3,0.6,0.4,1.3,0.4,2
		c0,1.6-0.5,2.8-1.4,3.7c-0.9,0.9-2.1,1.4-3.5,1.4c-1.1,0-2.1-0.4-2.9-1.1c-0.9-0.7-1.4-1.8-1.7-3.2h2.3c0.2,0.6,0.5,1,0.9,1.4
		c0.4,0.4,0.9,0.5,1.5,0.5c0.7,0,1.3-0.2,1.7-0.7c0.5-0.5,0.7-1.1,0.7-1.9c0-0.9-0.3-1.5-0.7-2c-0.5-0.5-1.1-0.7-1.8-0.7h-1V77.5z"
		/>
	<path class="st1" d="M144.4,75.1c0-1.5,0.5-2.7,1.4-3.6c0.9-0.8,1.9-1.2,3.2-1.2c1.3,0,2.3,0.4,3.2,1.2c0.9,0.8,1.4,2,1.4,3.6v7.4
		c0,1.5-0.5,2.7-1.4,3.6c-0.9,0.8-2,1.3-3.2,1.3c-1.2,0-2.3-0.4-3.2-1.3c-0.9-0.8-1.4-2-1.4-3.6V75.1z M151.4,75.2
		c0-1.7-0.8-2.5-2.3-2.6c-1.5,0-2.3,0.9-2.3,2.6v7.1c0,1.7,0.8,2.6,2.3,2.6c1.5,0,2.3-0.9,2.3-2.6V75.2z"/>
	<path class="st1" d="M156.1,78.1h6.9v2.4h-6.9V78.1z"/>
	<path class="st1" d="M165.2,84.9l6.4-8.2c0.2-0.3,0.4-0.6,0.5-0.9c0.1-0.3,0.1-0.5,0.1-0.8c0-0.6-0.2-1.2-0.6-1.7
		c-0.4-0.5-1-0.7-1.7-0.7c-0.6,0-1.2,0.2-1.6,0.6c-0.4,0.4-0.7,1-0.8,1.8h-2.3c0.1-1.4,0.5-2.6,1.4-3.5c0.9-0.9,1.9-1.3,3.2-1.4
		c1.4,0,2.5,0.5,3.4,1.4c0.9,0.9,1.3,2,1.4,3.4c0,1.1-0.3,2.1-1,3l-5.2,6.8h6.2v2.4h-9.3V84.9z"/>
	<path class="st1" d="M176.7,75.1c0-1.5,0.5-2.7,1.4-3.6c0.9-0.8,1.9-1.2,3.2-1.2c1.3,0,2.3,0.4,3.2,1.2c0.9,0.8,1.4,2,1.4,3.6v7.4
		c0,1.5-0.5,2.7-1.4,3.6c-0.9,0.8-2,1.3-3.2,1.3c-1.2,0-2.3-0.4-3.2-1.3c-0.9-0.8-1.4-2-1.4-3.6V75.1z M183.6,75.2
		c0-1.7-0.8-2.5-2.3-2.6c-1.5,0-2.3,0.9-2.3,2.6v7.1c0,1.7,0.8,2.6,2.3,2.6c1.5,0,2.3-0.9,2.3-2.6V75.2z"/>
	<path class="st1" d="M188.7,75.8h2.3v2.4h-2.3V75.8z M188.7,81.2h2.3v2.4h-2.3V81.2z"/>
	<path class="st1" d="M196.8,77.5h0.8c0.8,0,1.4-0.2,1.9-0.7c0.4-0.4,0.7-1,0.7-1.7c0-0.7-0.2-1.3-0.7-1.7c-0.4-0.4-1-0.7-1.7-0.7
		c-0.5,0-1,0.2-1.4,0.5c-0.4,0.3-0.7,0.8-0.9,1.5h-2.3c0.1-1.2,0.6-2.3,1.5-3.1c0.8-0.8,1.8-1.3,3-1.3c1.5,0,2.7,0.5,3.5,1.5
		c0.8,0.9,1.3,2,1.3,3.3c0,0.6-0.1,1.3-0.3,1.9c-0.3,0.6-0.7,1.1-1.4,1.6c0.7,0.5,1.2,1,1.5,1.7c0.3,0.6,0.4,1.3,0.4,2
		c0,1.6-0.5,2.8-1.4,3.7c-0.9,0.9-2.1,1.4-3.5,1.4c-1.1,0-2.1-0.4-2.9-1.1c-0.9-0.7-1.4-1.8-1.7-3.2h2.3c0.2,0.6,0.5,1,0.9,1.4
		c0.4,0.4,0.9,0.5,1.5,0.5c0.7,0,1.3-0.2,1.7-0.7c0.5-0.5,0.7-1.1,0.7-1.9c0-0.9-0.3-1.5-0.7-2c-0.5-0.5-1.1-0.7-1.8-0.7h-1V77.5z"
		/>
	<path class="st1" d="M205,75.1c0-1.5,0.5-2.7,1.4-3.6c0.9-0.8,1.9-1.2,3.2-1.2c1.3,0,2.3,0.4,3.2,1.2c0.9,0.8,1.4,2,1.4,3.6v7.4
		c0,1.5-0.5,2.7-1.4,3.6c-0.9,0.8-2,1.3-3.2,1.3c-1.2,0-2.3-0.4-3.2-1.3c-0.9-0.8-1.4-2-1.4-3.6V75.1z M211.9,75.2
		c0-1.7-0.8-2.5-2.3-2.6c-1.5,0-2.3,0.9-2.3,2.6v7.1c0,1.7,0.8,2.6,2.3,2.6c1.5,0,2.3-0.9,2.3-2.6V75.2z"/>
</g>
<rect x="11.2" y="95.6" class="st0" width="208.3" height="24.2"/>
<g>
	<path class="st1" d="M20.3,102.1l-2.3,1.8v-2.6l2.3-1.7h2.3v16.8h-2.3V102.1z"/>
	<path class="st1" d="M26.2,104.3c0-1.5,0.5-2.7,1.4-3.6c0.9-0.8,1.9-1.2,3.2-1.2c1.3,0,2.3,0.4,3.2,1.2c0.9,0.8,1.4,2,1.4,3.6v7.4
		c0,1.5-0.5,2.7-1.4,3.6c-0.9,0.8-2,1.3-3.2,1.3c-1.2,0-2.3-0.4-3.2-1.3c-0.9-0.8-1.4-2-1.4-3.6V104.3z M33.2,104.4
		c0-1.7-0.8-2.5-2.3-2.6c-1.5,0-2.3,0.9-2.3,2.6v7.1c0,1.7,0.8,2.6,2.3,2.6c1.5,0,2.3-0.9,2.3-2.6V104.4z"/>
	<path class="st1" d="M38.3,114h2.3v2.4h-2.3V114z"/>
	<path class="st1" d="M45,102.1l-2.3,1.8v-2.6l2.3-1.7h2.3v16.8H45V102.1z"/>
	<path class="st1" d="M51,104.3c0-1.5,0.5-2.7,1.4-3.6c0.9-0.8,1.9-1.2,3.2-1.2c1.3,0,2.3,0.4,3.2,1.2c0.9,0.8,1.4,2,1.4,3.6v7.4
		c0,1.5-0.5,2.7-1.4,3.6c-0.9,0.8-2,1.3-3.2,1.3c-1.1,0-2-0.4-2.9-1c-0.8-0.6-1.4-1.6-1.6-2.8h2.4c0.4,0.9,1.1,1.4,2.1,1.4
		c1.5,0,2.2-0.9,2.3-2.6V110c-1.1,0.4-2.1,0.5-3.1,0.5c-1.1,0-2-0.4-2.7-1.1c-0.7-0.7-1.1-1.9-1.1-3.5V104.3z M53.4,105.8
		c0,1.7,0.8,2.6,2.3,2.6c1.5,0,2.3-0.9,2.3-2.6v-1.4c0-1.7-0.8-2.5-2.3-2.6c-1.5,0-2.3,0.9-2.3,2.6V105.8z"/>
	<path class="st1" d="M63.1,114h2.3v2.4h-2.3V114z"/>
	<path class="st1" d="M68.7,113.3c0.8,0.9,1.8,1.3,3.1,1.3c0.6,0,1-0.1,1.4-0.3s0.5-0.5,0.5-1c0-0.4-0.1-0.6-0.3-0.8
		c-0.2-0.1-0.5-0.2-0.9-0.2l-1.7-0.2c-0.8-0.1-1.5-0.4-2-0.9c-0.5-0.5-0.8-1.2-0.8-2c0-1,0.4-1.8,1.1-2.3c0.7-0.5,1.5-0.8,2.6-0.8
		c0.5,0,0.9,0,1.2,0.1c0.4,0.1,0.7,0.2,1,0.3c0.6,0.3,1.1,0.6,1.6,1l-1.2,1.5c-0.4-0.3-0.8-0.5-1.2-0.7c-0.4-0.2-0.9-0.2-1.4-0.2
		c-0.6,0-1.1,0.1-1.3,0.3c-0.3,0.2-0.4,0.5-0.4,0.9c0,0.2,0.1,0.4,0.3,0.6c0.2,0.2,0.5,0.3,1,0.4l1.6,0.1c1,0.1,1.8,0.4,2.2,1
		c0.4,0.5,0.6,1.2,0.6,2.1c0,1-0.4,1.7-1.2,2.3c-0.8,0.5-1.7,0.8-2.9,0.8c-1.6,0-3-0.6-4.3-1.8L68.7,113.3z"/>
	<path class="st1" d="M83.2,115.5L83.2,115.5c-0.2,0.3-0.5,0.6-0.9,0.8c-0.4,0.2-0.9,0.3-1.6,0.3c-1.1,0-1.9-0.3-2.5-0.9
		c-0.6-0.6-0.9-1.3-0.9-2.2c0-0.9,0.3-1.6,0.8-2.1c0.5-0.6,1.3-0.9,2.4-0.9h2.7v-1.1c0-0.9-0.7-1.3-2-1.3c-0.5,0-0.9,0.1-1.2,0.2
		c-0.3,0.1-0.5,0.3-0.7,0.6l-1.5-1.2c0.7-1,1.9-1.5,3.3-1.5c1.2,0,2.2,0.2,3,0.7c0.7,0.5,1.1,1.4,1.1,2.6v6.9h-2V115.5z M83.2,112.1
		h-2.4c-1.1,0-1.7,0.4-1.7,1.2c0,0.3,0.1,0.6,0.4,0.9c0.3,0.3,0.8,0.4,1.4,0.4c0.8,0,1.4-0.1,1.8-0.3c0.3-0.2,0.5-0.7,0.5-1.5V112.1
		z"/>
	<path class="st1" d="M88.1,103.2h2v3.1h1.4v1.6h-1.4v5.9c0,0.5,0.2,0.8,0.7,0.8h0.7v1.9h-1c-0.7,0-1.3-0.2-1.7-0.7
		c-0.5-0.4-0.7-1-0.7-1.8v-6.1h-1v-1.6h1V103.2z"/>
	<path class="st1" d="M93.9,114.3h2v2h-2V114.3z"/>
</g>
<g>
	<path class="st1" d="M110.1,102.1l-2.3,1.8v-2.6l2.3-1.7h2.3v16.8h-2.3V102.1z"/>
	<path class="st1" d="M120.4,102.1l-2.3,1.8v-2.6l2.3-1.7h2.3v16.8h-2.3V102.1z"/>
	<path class="st1" d="M126.8,105h2.3v2.4h-2.3V105z M126.8,110.3h2.3v2.4h-2.3V110.3z"/>
	<path class="st1" d="M132.4,104.3c0-1.5,0.5-2.7,1.4-3.6c0.9-0.8,1.9-1.2,3.2-1.2c1.3,0,2.3,0.4,3.2,1.2c0.9,0.8,1.4,2,1.4,3.6v7.4
		c0,1.5-0.5,2.7-1.4,3.6c-0.9,0.8-2,1.3-3.2,1.3c-1.2,0-2.3-0.4-3.2-1.3c-0.9-0.8-1.4-2-1.4-3.6V104.3z M139.3,104.4
		c0-1.7-0.8-2.5-2.3-2.6c-1.5,0-2.3,0.9-2.3,2.6v7.1c0,1.7,0.8,2.6,2.3,2.6c1.5,0,2.3-0.9,2.3-2.6V104.4z"/>
	<path class="st1" d="M144.1,104.3c0-1.5,0.5-2.7,1.4-3.6c0.9-0.8,1.9-1.2,3.2-1.2c1.3,0,2.3,0.4,3.2,1.2c0.9,0.8,1.4,2,1.4,3.6v7.4
		c0,1.5-0.5,2.7-1.4,3.6c-0.9,0.8-2,1.3-3.2,1.3c-1.2,0-2.3-0.4-3.2-1.3c-0.9-0.8-1.4-2-1.4-3.6V104.3z M151,104.4
		c0-1.7-0.8-2.5-2.3-2.6c-1.5,0-2.3,0.9-2.3,2.6v7.1c0,1.7,0.8,2.6,2.3,2.6c1.5,0,2.3-0.9,2.3-2.6V104.4z"/>
	<path class="st1" d="M156.1,107.3h6.9v2.4h-6.9V107.3z"/>
	<path class="st1" d="M165.2,114.1l6.4-8.2c0.2-0.3,0.4-0.6,0.5-0.9c0.1-0.3,0.1-0.5,0.1-0.8c0-0.6-0.2-1.2-0.6-1.7
		c-0.4-0.5-1-0.7-1.7-0.7c-0.6,0-1.2,0.2-1.6,0.6c-0.4,0.4-0.7,1-0.8,1.8h-2.3c0.1-1.4,0.5-2.6,1.4-3.5c0.9-0.9,1.9-1.3,3.2-1.4
		c1.4,0,2.5,0.5,3.4,1.4c0.9,0.9,1.3,2,1.4,3.4c0,1.1-0.3,2.1-1,3l-5.2,6.8h6.2v2.4h-9.3V114.1z"/>
	<path class="st1" d="M176.7,104.3c0-1.5,0.5-2.7,1.4-3.6c0.9-0.8,1.9-1.2,3.2-1.2c1.3,0,2.3,0.4,3.2,1.2c0.9,0.8,1.4,2,1.4,3.6v7.4
		c0,1.5-0.5,2.7-1.4,3.6c-0.9,0.8-2,1.3-3.2,1.3c-1.2,0-2.3-0.4-3.2-1.3c-0.9-0.8-1.4-2-1.4-3.6V104.3z M183.6,104.4
		c0-1.7-0.8-2.5-2.3-2.6c-1.5,0-2.3,0.9-2.3,2.6v7.1c0,1.7,0.8,2.6,2.3,2.6c1.5,0,2.3-0.9,2.3-2.6V104.4z"/>
	<path class="st1" d="M188.7,105h2.3v2.4h-2.3V105z M188.7,110.3h2.3v2.4h-2.3V110.3z"/>
	<path class="st1" d="M193.7,104.3c0-1.5,0.5-2.7,1.4-3.6c0.9-0.8,1.9-1.2,3.2-1.2c1.3,0,2.3,0.4,3.2,1.2c0.9,0.8,1.4,2,1.4,3.6v7.4
		c0,1.5-0.5,2.7-1.4,3.6c-0.9,0.8-2,1.3-3.2,1.3c-1.2,0-2.3-0.4-3.2-1.3c-0.9-0.8-1.4-2-1.4-3.6V104.3z M200.6,104.4
		c0-1.7-0.8-2.5-2.3-2.6c-1.5,0-2.3,0.9-2.3,2.6v7.1c0,1.7,0.8,2.6,2.3,2.6c1.5,0,2.3-0.9,2.3-2.6V104.4z"/>
	<path class="st1" d="M205.4,104.3c0-1.5,0.5-2.7,1.4-3.6c0.9-0.8,1.9-1.2,3.2-1.2c1.3,0,2.3,0.4,3.2,1.2c0.9,0.8,1.4,2,1.4,3.6v7.4
		c0,1.5-0.5,2.7-1.4,3.6c-0.9,0.8-2,1.3-3.2,1.3c-1.2,0-2.3-0.4-3.2-1.3c-0.9-0.8-1.4-2-1.4-3.6V104.3z M212.3,104.4
		c0-1.7-0.8-2.5-2.3-2.6c-1.5,0-2.3,0.9-2.3,2.6v7.1c0,1.7,0.8,2.6,2.3,2.6c1.5,0,2.3-0.9,2.3-2.6V104.4z"/>
</g>
<rect x="11.2" y="124.7" class="st0" width="208.3" height="24.2"/>
<g>
	<path class="st1" d="M20.3,131.2l-2.3,1.8v-2.6l2.3-1.7h2.3v16.8h-2.3V131.2z"/>
	<path class="st1" d="M26.2,133.4c0-1.5,0.5-2.7,1.4-3.6c0.9-0.8,1.9-1.2,3.2-1.2c1.3,0,2.3,0.4,3.2,1.2c0.9,0.8,1.4,2,1.4,3.6v7.4
		c0,1.5-0.5,2.7-1.4,3.6c-0.9,0.8-2,1.3-3.2,1.3c-1.2,0-2.3-0.4-3.2-1.3c-0.9-0.8-1.4-2-1.4-3.6V133.4z M33.2,133.5
		c0-1.7-0.8-2.5-2.3-2.6c-1.5,0-2.3,0.9-2.3,2.6v7.1c0,1.7,0.8,2.6,2.3,2.6c1.5,0,2.3-0.9,2.3-2.6V133.5z"/>
	<path class="st1" d="M37.6,143.1h2.3v2.4h-2.3V143.1z"/>
	<path class="st1" d="M42,143.2l6.4-8.2c0.2-0.3,0.4-0.6,0.5-0.9c0.1-0.3,0.1-0.5,0.1-0.8c0-0.6-0.2-1.2-0.6-1.7
		c-0.4-0.5-1-0.7-1.7-0.7c-0.6,0-1.2,0.2-1.6,0.6c-0.4,0.4-0.7,1-0.8,1.8H42c0.1-1.4,0.5-2.5,1.4-3.5c0.9-0.9,1.9-1.3,3.2-1.4
		c1.4,0,2.5,0.5,3.4,1.4c0.9,0.9,1.3,2,1.4,3.4c0,1.1-0.3,2.1-1,3l-5.2,6.8h6.2v2.4H42V143.2z"/>
	<path class="st1" d="M53.1,133.4c0-1.5,0.5-2.7,1.4-3.6c0.9-0.8,1.9-1.2,3.2-1.2c1.3,0,2.3,0.4,3.2,1.2c0.9,0.8,1.4,2,1.4,3.6v7.4
		c0,1.5-0.5,2.7-1.4,3.6c-0.9,0.8-2,1.3-3.2,1.3c-1.2,0-2.3-0.4-3.2-1.3c-0.9-0.8-1.4-2-1.4-3.6V133.4z M60.1,133.5
		c0-1.7-0.8-2.5-2.3-2.6c-1.5,0-2.3,0.9-2.3,2.6v7.1c0,1.7,0.8,2.6,2.3,2.6c1.5,0,2.3-0.9,2.3-2.6V133.5z"/>
	<path class="st1" d="M64.5,143.1h2.3v2.4h-2.3V143.1z"/>
	<path class="st1" d="M70.1,142.4c0.8,0.9,1.8,1.3,3.1,1.3c0.6,0,1-0.1,1.4-0.3s0.5-0.5,0.5-1c0-0.4-0.1-0.6-0.3-0.8
		c-0.2-0.1-0.5-0.2-0.9-0.2l-1.7-0.2c-0.8-0.1-1.5-0.4-2-0.9c-0.5-0.5-0.8-1.2-0.8-2c0-1,0.4-1.8,1.1-2.3c0.7-0.5,1.5-0.8,2.6-0.8
		c0.5,0,0.9,0,1.2,0.1c0.4,0.1,0.7,0.2,1,0.3c0.6,0.3,1.1,0.6,1.6,1l-1.2,1.5c-0.4-0.3-0.8-0.5-1.2-0.7c-0.4-0.2-0.9-0.2-1.4-0.2
		c-0.6,0-1.1,0.1-1.3,0.3c-0.3,0.2-0.4,0.5-0.4,0.9c0,0.2,0.1,0.4,0.3,0.6c0.2,0.2,0.5,0.3,1,0.4l1.6,0.1c1,0.1,1.8,0.4,2.2,1
		c0.4,0.5,0.6,1.2,0.6,2.1c0,1-0.4,1.7-1.2,2.3c-0.8,0.5-1.7,0.8-2.9,0.8c-1.6,0-3-0.6-4.3-1.8L70.1,142.4z"/>
	<path class="st1" d="M78.5,135.4h2v6c0,0.7,0.2,1.2,0.6,1.6c0.4,0.4,0.8,0.6,1.4,0.6s1-0.2,1.4-0.6c0.4-0.4,0.5-0.9,0.5-1.6v-6h2
		v10.1h-2v-1.1h0c-0.6,0.8-1.5,1.2-2.5,1.2c-0.8,0-1.5-0.3-2.2-0.9c-0.7-0.6-1.1-1.4-1.1-2.6V135.4z"/>
	<path class="st1" d="M88.4,135.4h2v1.1h0c0.6-0.8,1.5-1.2,2.5-1.2c0.8,0,1.6,0.3,2.2,0.9c0.7,0.6,1,1.5,1,2.6v6.7h-2v-6
		c0-0.7-0.2-1.2-0.5-1.6c-0.4-0.4-0.8-0.6-1.4-0.6s-1,0.2-1.4,0.6c-0.4,0.4-0.6,0.9-0.6,1.6v6h-2V135.4z"/>
	<path class="st1" d="M98.2,143.5h2v2h-2V143.5z"/>
</g>
<g>
	<path class="st1" d="M110.1,131.2l-2.3,1.8v-2.6l2.3-1.7h2.3v16.8h-2.3V131.2z"/>
	<path class="st1" d="M120.4,131.2l-2.3,1.8v-2.6l2.3-1.7h2.3v16.8h-2.3V131.2z"/>
	<path class="st1" d="M126.8,134.1h2.3v2.4h-2.3V134.1z M126.8,139.5h2.3v2.4h-2.3V139.5z"/>
	<path class="st1" d="M132.4,133.4c0-1.5,0.5-2.7,1.4-3.6c0.9-0.8,1.9-1.2,3.2-1.2c1.3,0,2.3,0.4,3.2,1.2c0.9,0.8,1.4,2,1.4,3.6v7.4
		c0,1.5-0.5,2.7-1.4,3.6c-0.9,0.8-2,1.3-3.2,1.3c-1.2,0-2.3-0.4-3.2-1.3c-0.9-0.8-1.4-2-1.4-3.6V133.4z M139.3,133.5
		c0-1.7-0.8-2.5-2.3-2.6c-1.5,0-2.3,0.9-2.3,2.6v7.1c0,1.7,0.8,2.6,2.3,2.6c1.5,0,2.3-0.9,2.3-2.6V133.5z"/>
	<path class="st1" d="M144.1,133.4c0-1.5,0.5-2.7,1.4-3.6c0.9-0.8,1.9-1.2,3.2-1.2c1.3,0,2.3,0.4,3.2,1.2c0.9,0.8,1.4,2,1.4,3.6v7.4
		c0,1.5-0.5,2.7-1.4,3.6c-0.9,0.8-2,1.3-3.2,1.3c-1.2,0-2.3-0.4-3.2-1.3c-0.9-0.8-1.4-2-1.4-3.6V133.4z M151,133.5
		c0-1.7-0.8-2.5-2.3-2.6c-1.5,0-2.3,0.9-2.3,2.6v7.1c0,1.7,0.8,2.6,2.3,2.6c1.5,0,2.3-0.9,2.3-2.6V133.5z"/>
	<path class="st1" d="M156.1,136.4h6.9v2.4h-6.9V136.4z"/>
	<path class="st1" d="M168.9,131.2l-2.3,1.8v-2.6l2.3-1.7h2.3v16.8h-2.3V131.2z"/>
	<path class="st1" d="M175.6,133.4c0-1.6,0.5-2.7,1.4-3.6c0.9-0.8,1.9-1.2,3.2-1.2c1.1,0,2.1,0.3,2.9,1c0.8,0.7,1.4,1.6,1.6,2.8
		h-2.4c-0.4-0.9-1.1-1.4-2.1-1.4c-1.5,0-2.3,0.9-2.3,2.6v1.6c1.1-0.4,2.1-0.5,3.1-0.5c1.1,0,2,0.4,2.7,1.1c0.7,0.8,1.1,1.9,1.1,3.6
		v1.5c0,1.5-0.5,2.7-1.4,3.6c-0.9,0.8-2,1.3-3.2,1.3c-1.2,0-2.3-0.4-3.2-1.3c-0.9-0.8-1.4-2-1.4-3.6V133.4z M178,140.7
		c0,1.7,0.8,2.6,2.3,2.6c1.5,0,2.3-0.9,2.3-2.6v-1.4c0-1.7-0.8-2.5-2.3-2.6c-1.5,0-2.3,0.9-2.3,2.6V140.7z"/>
	<path class="st1" d="M188.4,134.1h2.3v2.4h-2.3V134.1z M188.4,139.5h2.3v2.4h-2.3V139.5z"/>
	<path class="st1" d="M193.7,133.4c0-1.5,0.5-2.7,1.4-3.6c0.9-0.8,1.9-1.2,3.2-1.2c1.3,0,2.3,0.4,3.2,1.2c0.9,0.8,1.4,2,1.4,3.6v7.4
		c0,1.5-0.5,2.7-1.4,3.6c-0.9,0.8-2,1.3-3.2,1.3c-1.2,0-2.3-0.4-3.2-1.3c-0.9-0.8-1.4-2-1.4-3.6V133.4z M200.6,133.5
		c0-1.7-0.8-2.5-2.3-2.6c-1.5,0-2.3,0.9-2.3,2.6v7.1c0,1.7,0.8,2.6,2.3,2.6c1.5,0,2.3-0.9,2.3-2.6V133.5z"/>
	<path class="st1" d="M205.4,133.4c0-1.5,0.5-2.7,1.4-3.6c0.9-0.8,1.9-1.2,3.2-1.2c1.3,0,2.3,0.4,3.2,1.2c0.9,0.8,1.4,2,1.4,3.6v7.4
		c0,1.5-0.5,2.7-1.4,3.6c-0.9,0.8-2,1.3-3.2,1.3c-1.2,0-2.3-0.4-3.2-1.3c-0.9-0.8-1.4-2-1.4-3.6V133.4z M212.3,133.5
		c0-1.7-0.8-2.5-2.3-2.6c-1.5,0-2.3,0.9-2.3,2.6v7.1c0,1.7,0.8,2.6,2.3,2.6c1.5,0,2.3-0.9,2.3-2.6V133.5z"/>
</g>
</svg>
