<?xml version="1.0" encoding="utf-8"?>
<!-- Generator: Adobe Illustrator 22.0.1, SVG Export Plug-In . SVG Version: 6.00 Build 0)  -->
<svg version="1.1" id="レイヤー_1" xmlns="http://www.w3.org/2000/svg" xmlns:xlink="http://www.w3.org/1999/xlink" x="0px"
	 y="0px" viewBox="0 0 205 427.6" style="enable-background:new 0 0 205 427.6;" xml:space="preserve">
<style type="text/css">
	.st0{fill:#FFFF00;}
	.st1{fill:#FFFFFF;stroke:#009A63;stroke-width:0.8504;stroke-miterlimit:10;}
</style>
<rect x="145" y="7.1" class="st0" width="52" height="404.5"/>
<rect x="78" y="7.1" class="st0" width="52" height="412.5"/>
<rect x="8.9" y="7.1" class="st0" width="52" height="368.5"/>
<g>
	<path class="st1" d="M170.6,24.3c-2.5,0.4-4.9,0.6-7.6,0.6c-3.7-0.1-3.9-5.1,0.5-4.6c2,0.2,4.2,0.1,7.5-0.3c0-2.6,0-4.8,0-6.4
		c0.1-3.7,5.1-2.8,4.9,0c-0.1,1.7-0.2,3.7-0.3,5.6c1-0.2,2.1-0.5,3.3-0.7c3.2-0.7,4.5,3.8,0.3,4.4c-1.3,0.2-2.5,0.4-3.6,0.6
		c0,1.8,0,3.6,0,5.3c1.2-0.3,2.4-0.7,3.7-1.1c3.6-1.2,5.4,3.3,1.1,4.5c-1.7,0.5-3.2,0.9-4.6,1.3c0.1,1.6,0.2,3.1,0.3,4.5
		c0.1,1.3,0.3,3,0.4,4.8c2.4,0.9,4.5,2.2,6,3.4c3.2,2.7,0.1,7-2.9,4.2c-1-0.9-2.2-1.8-3.5-2.6c-1.7,4.1-7.6,7.3-13.5,4.4
		c-4.6-2.3-4.9-7.7,0.4-9.9c2.9-1.3,6.2-1.3,9.2-0.8c0-1-0.1-2-0.2-3.1c-0.1-1.2-0.2-2.5-0.3-4c-3.8,0.7-6.4,0.9-8.8,0.5
		c-3.4-0.5-2.8-5.4,1-4.6c1.4,0.3,3.8,0.3,7.5-0.4c-0.1-1.8-0.2-3.7-0.2-5.6L170.6,24.3z M164.4,45.8c-1.3,0.5-1.5,2.1-0.1,2.7
		c2.9,1.4,6.7,0,7.4-2.7C169,45,166.5,44.8,164.4,45.8z"/>
	<path class="st1" d="M166.4,86.1c2.7-1.9,6-3.7,9.5-4.1c10.1-1.3,14.7,7.6,8.6,14.8c-2.6,3.2-7.8,5.6-13,6.3
		c-4.6,0.6-4.9-4.2-1.3-4.6c4.1-0.5,8-2.1,10-4.3c3.5-4,2.7-8.5-3.9-8c-3,0.2-6.5,2.3-8.5,4.4c-0.9,0.9-1.1,2.3-2.7,2.7
		c-2.1,0.6-3.8-1.5-3.4-4c0.4-2.7,1.1-7.7,1.8-12.4c-1.4,0.1-2.9,0.1-4.5-0.1c-3.6-0.6-3.2-5.4,0.7-4.6c1.3,0.3,2.9,0.3,4.6,0
		c0.5-3.1,1-5.7,1.3-7.2c0.8-3.3,5.5-1.8,4.6,1.2c-0.3,1.1-0.7,2.7-1.1,4.5c0.9-0.4,1.7-1,2.6-1.5c3.3-2.4,6.4,2.5,1.9,4.5
		c-2,1-3.8,1.7-5.4,2.3C167.5,80.1,166.8,84.4,166.4,86.1z"/>
	<path class="st1" d="M158.3,122.4c-2.9-0.8-2-5.3,1.4-4.1c1.6,0.5,4.1,0.5,6.6-0.1c0.5-1.6,0.7-3.1,1-4.9c0.4-2.8,4.7-2.3,4.6,0.4
		c0,0.7-0.3,1.8-0.7,2.9c0.6-0.3,1.1-0.5,1.5-0.8c2.2-1.5,5.2,1.4,2.1,3.7c-1.2,0.9-3.2,1.6-5.2,2.2c-2.3,5.4-5.5,11.2-8.6,16.2
		c-1.8,2.9-6.4,1-4.3-2.1c2.7-4,5.5-8.1,7.9-13.2C162.2,123.1,160.1,122.9,158.3,122.4z M166.5,149.5c-4.5-2.3-5-7.5,0-9.7
		c3-1.3,6.3-1.4,9.3-0.9c0-0.5,0-1.1,0-1.7c0-1.2-0.1-2.4-0.1-3.6c0-1,0-2.3,0.2-3.2c0.6-2.7,4.8-2,4.3,0.9
		c-0.1,0.7-0.3,1.3-0.3,2.3c0,1.1,0,2.3,0,3.7c0,0.9,0.1,1.9,0.2,3c2.6,1.1,4.7,2.6,5.9,3.9c2.7,3-1.2,6.5-3.5,3.7
		c-0.7-0.9-1.6-1.7-2.7-2.5C178.4,149.1,172.4,152.4,166.5,149.5z M168.1,143.2c-1.3,0.7-1.4,2.1,0,2.8c2.9,1.4,6.8,0,7.3-2.6
		c0-0.1,0-0.3,0-0.5C173,142.1,170.4,142,168.1,143.2z M178.8,125.4c-2.7,0.1-2.8-3.9,0.2-4.1c3.2-0.3,6.6,0.3,8.9,1.7
		c3.3,2,0.8,6-1.6,4.5C184.1,126,181.6,125.3,178.8,125.4z"/>
	<path class="st1" d="M170.3,172c4-0.3,7.1,2,7.3,7.4c0.1,3.4-0.4,7.7-1.6,10.7c-2,4.8-6.7,7.1-11.3,5.8c-3.8-1.1-2.3-5.5,0.7-4.8
		c2.7,0.7,4.8,0.2,6.1-2.6c1.1-2.4,1.5-5.8,1.5-8.3c0-2.9-1-4.3-3.2-4.1c-0.7,0-1.4,0.1-2.2,0.2c-2.4,7.5-5.6,14-9.3,19.4
		c-2.3,3.3-7.3,0.5-4.2-3c3.3-3.7,6.3-9.2,8.5-15.7l-0.6,0.1c-2.1,0.4-4,0.7-5.2,0.7c-3.3,0-3.2-4.3-0.1-4.6c1.5-0.1,3-0.1,4.7-0.2
		l2.4-0.2c0.6-2.1,1.2-5,1.5-7.7c0.3-3.1,5.3-2.8,4.9,0.4c-0.2,1.6-0.8,4.5-1.4,6.8L170.3,172z M188,182.9c-1.2-2.7-3.3-6.3-6.9-8.3
		c-2.4-1.3-0.2-4.9,2.7-3.2c3.9,2.3,7.3,5.7,8.6,9.2C193.7,183.7,189.3,185.9,188,182.9z"/>
	<path class="st1" d="M166.7,223.2c0.5-0.9,0.9-1.7,1.5-2.5c0.8-1,0.5-1-0.4-0.7c-3.6,1.2-2.8,1.2-6.1,2.4c-1.5,0.6-2.9,1.1-4.3,1.4
		c-4.2,1.2-5.5-4.4-1.7-5.2c1-0.2,3.8-0.8,5.3-1.2c2.4-0.6,6.6-1.5,11.5-2.9c5-1.4,8.9-2.6,13.1-2.8c3-0.2,3.8,2.2,3.3,3.7
		c-0.3,0.8-1.3,1.8-4.7,1.6c-2.5-0.1-5.5,0.8-7.1,1.3c-2.7,1-5.2,3.9-6.2,5.6c-4.2,7.1-1,17.2,9.8,16.8c5.1-0.2,5.4,5.5,0.3,5.4
		C166.5,246.3,161.5,232.9,166.7,223.2z M181.6,226.4c-2.6-1.1-0.6-4.1,1.7-3.2c1.3,0.5,4,1.8,5.1,3c2,2.1-1,5.2-2.7,3.2
		C185,228.7,182.6,226.8,181.6,226.4z M186.4,222.2c-2.6-1-0.7-4.1,1.6-3.3c1.3,0.4,4,1.7,5.1,2.9c2,2-0.8,5.2-2.6,3.3
		C190,224.3,187.5,222.6,186.4,222.2z"/>
	<path class="st1" d="M168.5,277.2c-2.7,0-5.3,0-7.7-0.1c-4-0.1-6-2.1-6.1-6.2c0-1.3,0-2.7,0-4.2c0-1.4,0-2.9,0-4.2
		c0-1.5,1.2-2.3,2.4-2.3c1.2,0,2.5,0.8,2.5,2.2c0,0,0,0,0,0.1c0,1.4-0.1,2.9-0.1,4.4c0,1,0,2,0,2.8c0.1,3.2,1,3.2,9,3.2l0-14.4
		c0-1.4,1.3-2.1,2.5-2.1c1.3,0,2.6,0.7,2.6,2.1l0,14.4c2.1,0,4.2-0.1,6.2-0.1c3-0.1,3.2-2,3.2-5.6c0-1.6-0.1-3.2-0.1-4.6
		c0,0,0,0,0-0.1c0-1.4,1.2-2.1,2.4-2.1c1.3,0,2.5,0.7,2.6,2.2c0,1.2,0.1,2.6,0.1,4s0,2.8-0.1,4.2c-0.1,4.1-3,6.1-6.6,6.3
		c-2.4,0.1-5,0.1-7.6,0.1v15.6c3,0,5.9,0,8-0.1c2.8-0.1,3.2-1.7,3.2-5.8c0-1.8-0.1-3.8-0.1-5.2c0,0,0,0,0-0.1c0-1.4,1.2-2.1,2.4-2.1
		c1.3,0,2.5,0.7,2.6,2.2c0,1.2,0.1,2.8,0.1,4.4s0,3.2-0.1,4.6c-0.1,4.1-3,6.3-6.6,6.4c-3.3,0.1-7.8,0.2-12.2,0.2s-8.7,0-11.7-0.2
		c-4-0.1-6-2.2-6.1-6.3c0-1.3,0-2.9,0-4.6c0-1.6,0-3.3,0-4.6c0-1.5,1.2-2.3,2.4-2.3c1.2,0,2.5,0.8,2.5,2.2c0,0,0,0,0,0.1
		c0,1.4-0.1,3.2-0.1,4.9c0,5,0,6.1,2.9,6.2c2.2,0.1,5,0.1,7.9,0.1V277.2z"/>
	<path class="st1" d="M172.5,313.9c-0.5-0.6-0.9-0.9-1.3-0.9c-0.3,0-0.7,0.3-1.2,0.9c-4,5-10.3,11.1-15.5,14.5
		c-0.7,0.5-1.4,0.7-2,0.7c-1.5,0-2.7-1.3-2.7-2.6c0-0.8,0.5-1.7,1.5-2.3c5.6-2.9,11.6-8.8,15.2-13.5c1.2-1.5,2.7-2.3,4.2-2.3
		c1.5,0,3.1,0.7,4.5,2.3c4.7,5.1,9.9,9.1,15.6,12c0.9,0.5,1.3,1.3,1.3,2.1c0,1.4-1.2,2.8-2.8,2.8
		C186.9,327.6,177.9,319.8,172.5,313.9z M170.1,334.6c-0.9,2.7-2.1,6.3-3.5,9.4c4.4-0.3,8.8-0.9,13-1.5c-1.1-1-2.3-2-3.5-2.8
		c-0.7-0.5-1-1.1-1-1.6c0-1,1-2,2.3-2c2.8,0,11.5,8,11.5,10.9c0,1.4-1.3,2.6-2.7,2.6c-0.8,0-1.5-0.4-2-1.3c-0.5-0.9-1-1.7-1.6-2.5
		c-11.3,2.4-25,3.3-25.9,3.3c-1.4,0-2.2-1.3-2.2-2.4c0-1.1,0.6-2.1,2-2.2c1.7,0,3.4-0.1,5.2-0.2c1.3-2.8,2.6-6.5,3.4-9.7l-9.1,0
		c-1.5,0-2.3-1-2.3-2.1c0-1.1,0.8-2.3,2.3-2.3h30.6c1.5,0,2.3,1.1,2.3,2.2c0,1.1-0.8,2.1-2.3,2.1L170.1,334.6z M164.6,325.8
		c-1.5,0-2.3-1.1-2.3-2.2c0-1.1,0.8-2.2,2.3-2.2h13.8c1.5,0,2.3,1.1,2.3,2.2c0,1.1-0.8,2.2-2.3,2.2H164.6z"/>
	<path class="st1" d="M167,396.7c8.6-6.1,11.3-14.6,9.3-20.2c-1.3-3.8-5-4-8.3-2c-1,0.6-3.6,1.9-4.7,2.2c-3.8,1-5-3.8-1.5-5
		c1.3-0.4,2.8-1,4.1-1.5c4.9-2.2,12-2,14.6,3.6c3.7,8-0.4,19.5-10,26.6C167.3,402.7,164.1,398.8,167,396.7z M166,362.3
		c-2.7-1.5-0.7-5.3,2.7-3.8c2.1,0.9,4.8,1.7,7.5,2.1c4,0.7,2.4,5.5-1.2,4.9C171.5,364.9,168,363.4,166,362.3z"/>
	<path class="st1" d="M100.5,42.9c0.4,6.9-5.8,6.8-9.7,4.9c-5.7-2.8-4.1-6.2-1.6-9c1.5-1.6,4-3.5,6.8-5.1c0-2-0.1-4.1-0.1-6
		c-2,0.4-4,0.4-5.8,0.2c-3.6-0.4-3-5.3,1-4.4c1.2,0.2,3,0,4.9-0.4c0-2.3-0.1-3.8-0.2-5.6c-0.2-3.6,5.1-3.5,4.9,0
		c-0.1,1.1-0.1,2.6-0.2,4c0.7-0.3,1.3-0.7,1.9-1.1c2.6-1.7,5.5,2.1,2.2,4.1c-1.4,0.9-3,1.6-4.5,2.2c0,1.5,0,3.3,0,5.1
		c1.3-0.6,2.7-1.1,4-1.5c4.1-1.2,8.2-0.8,10.7,0c8,2.7,6.6,9.3,4.2,12.8c-3.1,4.5-9.9,6.1-15.5,2.9c-2.7-1.6-0.9-5.5,2.1-4.1
		c3.8,1.8,6.8,1.9,9.2-1.2c1.2-1.5,2.5-5-1.7-6.5c-1.9-0.7-4.4-0.9-7.8-0.1c-1.7,0.4-3.4,1.1-5.1,1.8
		C100.2,38.4,100.4,40.9,100.5,42.9z M92.4,41.4c-1,1.1-1,2.4,0.1,2.9c2.1,1,3.5,0.9,3.5-1c0-1.3,0-3.1,0-5.1
		C94.6,39.2,93.4,40.3,92.4,41.4z M119.7,26.2c-1.3-1.1-3.9-2.3-6.4-2c-2.9,0.3-3.7-4-0.2-4.2s8.3,0.9,10,2.7c1.2,1.2,0.9,2.6,0,3.4
		C122.4,27,120.9,27.2,119.7,26.2z"/>
	<path class="st1" d="M91.5,94.9c-3.5-3.8-5.1-9.3-5.4-15.4c-0.2-2.7-0.3-3.6-0.2-5.3c0.1-3,4.8-3.7,4.9,0c0.1,1.9-0.1,2,0,4.2
		c0.2,5.1,1.1,9.8,3.8,12.4c1.3,1.2,1.9,1.3,2.9-0.1c0.6-0.8,1.3-2.1,1.6-2.8c1.3-2.8,5.3-0.8,4.4,1.7c-0.5,1.3-1.3,2.8-1.9,3.7
		C98.5,98.2,94.2,97.8,91.5,94.9z M117.5,86.4c-0.8-3.9-2.7-7.6-5.3-9.3c-2.3-1.6,0.3-5.2,3.2-3c3.4,2.6,6.7,7.1,7.2,11.2
		C123,88.7,118.2,89.7,117.5,86.4z"/>
	<path class="st1" d="M93.1,140.3c-0.2-5.1,0.3-9.2,0.6-14.3c0.1-3.1,0.5-7.9,0.4-10.8c-0.1-3.6,5.3-3.3,5.3-0.1
		c-0.1,3-0.4,7.6-0.7,10.8c-0.3,5.1-1.1,9.5-0.9,14.2c0.3,7,8.9,6.6,17.3,0c3.1-2.5,6.1,2,3.3,4.2
		C108.9,151.9,93.5,153.3,93.1,140.3z"/>
	<path class="st1" d="M91.5,193.7c-3.5-3.8-5.1-9.3-5.4-15.4c-0.2-2.7-0.3-3.6-0.2-5.3c0.1-3,4.8-3.7,4.9,0c0.1,1.9-0.1,2,0,4.2
		c0.2,5.1,1.1,9.8,3.8,12.4c1.3,1.2,1.9,1.3,2.9-0.1c0.6-0.8,1.3-2.1,1.6-2.8c1.3-2.8,5.3-0.8,4.4,1.7c-0.5,1.3-1.3,2.8-1.9,3.7
		C98.5,197,94.2,196.5,91.5,193.7z M117.5,185.2c-0.8-3.9-2.7-7.6-5.3-9.3c-2.3-1.6,0.3-5.2,3.2-3c3.4,2.6,6.7,7.1,7.2,11.2
		C123,187.5,118.2,188.5,117.5,185.2z"/>
	<path class="st1" d="M120.3,221.6c-1.2-1.8-3.9-4-5.9-5.1c-0.9-0.5-1.3-1.2-1.3-1.9c0-1.1,0.9-2.1,2.3-2.1c1.7,0,9.4,4.2,9.4,7.5
		c0,1.5-1.3,2.7-2.6,2.7C121.5,222.6,120.8,222.3,120.3,221.6z"/>
	<path class="st1" d="M121.5,283.2l-14.1-0.3c4.9,3.8,9.8,5.8,15.3,7.9c1.1,0.4,1.5,1.1,1.5,1.9c0,1.3-1.3,2.6-2.8,2.6
		c-1.7,0-9.9-4.2-16-9.4l0.1,9v0c0,1.2-1.2,1.8-2.3,1.8c-1.2,0-2.3-0.6-2.3-1.8v0l0.1-8.9c-5.6,5-14.6,9.6-16.3,9.6
		c-1.4,0-2.4-1.1-2.4-2.2c0-0.7,0.5-1.5,1.6-1.9c5.8-2.3,10.3-4.7,14.8-8.6L85,283.2h0c-1.3,0-2-1-2-2s0.7-2,2.1-2h15.9l0-1.3
		c0-1.2,0.8-2.1,2.3-2.1c1.2,0,2.3,0.7,2.3,2c0,0,0,0,0,0.1v1.3h16.1c1.4,0,2.1,1,2.1,2S122.9,283.2,121.5,283.2L121.5,283.2z
		 M84.7,275.7c-1.4,0-2.2-1.2-2.2-2.3c0-0.8,0.5-1.6,1.5-2c3.4-1.1,4.3-1.4,7-3.1c0.3-0.2,0.7-0.3,1-0.3c1.1,0,1.8,1,1.8,2.1
		c0,0.6-0.3,1.3-0.9,1.7C89.3,274.4,85.6,275.7,84.7,275.7z M89.7,264.5c-1.6-1.4-3.8-2.8-4.9-3.4c-0.7-0.4-1-0.9-1-1.5
		c0-1.1,1.1-2.3,2.3-2.3c2,0,6.4,3.5,6.4,3.5c0.6,0.5,0.8,1.2,0.8,1.8c0,1.3-1,2.5-2.2,2.5C90.8,265.1,90.2,264.9,89.7,264.5z
		 M111.3,262.1c0,1.7,0.1,4,0.1,6.2c0,1.3,0,2.4-0.1,3.3c-0.1,1.9-1.3,3.6-3.9,3.9c-1.1,0.1-3.3,0.2-5.3,0.2c-3.5,0-7.1,0-7.2-3.8
		c0-1.2,0-3,0-4.8c0-1.8,0-3.6,0-4.8c0-1.9,1.3-3.5,3.9-3.6c0.4,0,0.9,0,1.5,0c0.2-0.9,0.5-2.1,0.6-3c0.2-1.3,1.3-1.8,2.3-1.8
		c1.2,0,2.5,0.8,2.5,2c0,0.6-0.4,2-0.8,2.8C107.4,258.5,111.2,258.5,111.3,262.1z M107.4,265.2c0-0.9,0-1.7,0-2.3
		c0-1.1-0.1-1.3-4.1-1.3c-1.2,0-2.4,0-2.9,0c-1.5,0.1-1.5,0.8-1.5,3.5H107.4z M98.9,268.5c0,1.1,0,1.9,0,2.5
		c0.1,1.3,1.2,1.3,4.3,1.3c1.2,0,2.4,0,2.8,0c1.3-0.1,1.3-1,1.3-3.8H98.9z M114.6,265.4c-1.2,0-2.1-1.1-2.1-2.2c0-0.6,0.3-1.2,1-1.5
		c1.6-0.7,3.6-2.2,5.3-3.7c0.5-0.5,1.1-0.7,1.6-0.7c1.3,0,2.3,1.2,2.3,2.4c0,0.6-0.3,1.3-0.9,1.8
		C121.7,261.5,116.3,265.4,114.6,265.4z M119.4,274.7c-1.7-1.5-3.5-2.7-5.3-3.4c-1-0.4-1.3-1-1.3-1.7c0-1,1-2,2.3-2
		c2.2,0,6.4,2.7,7.1,3.2c0.8,0.6,1.1,1.4,1.1,2.1c0,1.3-1,2.4-2.2,2.4C120.6,275.4,120,275.2,119.4,274.7z"/>
	<path class="st1" d="M93.1,340.5c-0.2-5.1,0.3-9.2,0.6-14.3c0.1-3.1,0.5-7.9,0.4-10.8c-0.1-3.6,5.3-3.3,5.3-0.1
		c-0.1,3-0.4,7.6-0.7,10.8c-0.3,5.1-1.1,9.5-0.9,14.2c0.3,7,8.9,6.6,17.3,0c3.1-2.5,6.1,2,3.3,4.2
		C108.9,352.2,93.5,353.5,93.1,340.5z"/>
	<path class="st1" d="M91.5,394.6c-3.5-3.8-5.1-9.3-5.4-15.4c-0.2-2.7-0.3-3.6-0.2-5.3c0.1-3,4.8-3.7,4.9,0c0.1,1.9-0.1,2,0,4.2
		c0.2,5.1,1.1,9.8,3.8,12.4c1.3,1.2,1.9,1.3,2.9-0.1c0.6-0.8,1.3-2.1,1.6-2.8c1.3-2.8,5.3-0.8,4.4,1.7c-0.5,1.3-1.3,2.8-1.9,3.7
		C98.5,397.9,94.2,397.5,91.5,394.6z M117.5,386.1c-0.8-3.9-2.7-7.6-5.3-9.3c-2.3-1.6,0.3-5.2,3.2-3c3.4,2.6,6.7,7.1,7.2,11.2
		C123,388.5,118.2,389.4,117.5,386.1z"/>
	<path class="st1" d="M120.3,411c-1.2-1.8-3.9-4-5.9-5.1c-0.9-0.5-1.3-1.2-1.3-1.9c0-1.1,0.9-2.1,2.3-2.1c1.7,0,9.4,4.2,9.4,7.5
		c0,1.5-1.3,2.7-2.6,2.7C121.5,412,120.8,411.7,120.3,411z"/>
	<path class="st1" d="M38.1,52.4c-2.8-5.5-6.9-11.8-10.2-15.7c-3.2-3.7-3.2-7.1,0.6-11c3.3-3.4,7-7,9.9-10.9
		c2.2-2.9,6.6,0.5,4.3,3.3c-2.4,2.9-7.5,7.1-10.5,10.1c-2.1,2.1-2.2,3.5-0.6,5.5c4.8,6,8.9,10.6,11.3,15.7
		C44.3,52.6,39.6,55.4,38.1,52.4z"/>
	<path class="st1" d="M32.4,96c-4.5,0.7-4.8-4.6-1-5.1c6.1-0.8,10.7-2.6,14.2-5.6c4.1-3.6,4.4-7.6,2.2-10.1
		c-3.1-3.5-8.5-3.4-12.9-2.1c-2.5,0.8-4.7,1.8-6.9,2.8s-4.3,2.2-6.7,3.3c-3.9,1.8-6-3.3-2.4-4.8c4.2-1.7,9.9-4.3,15.1-5.6
		c5.5-1.4,12.8-1.3,17.3,3.3c5.2,5.4,3.3,12.3-2.7,17.3C44.7,92.5,39.5,94.8,32.4,96z"/>
	<path class="st1" d="M49.5,127.9c6,5.3,3.4,14.9-6,18.8c-3.1,1.3-5.3,2.3-9.5,2.8c-3.9,0.5-5.1-4.3-0.9-4.9
		c3.5-0.5,6.5-1.3,8.6-2.5c5.7-2.9,7.2-7.5,4.9-10.4c-4.1-5.3-14.8-1.9-20,4.2c-1.7,1.9-0.8,1.1-2,2.5c-2.4,2.9-7.4,0.9-4.5-2.9
		c1-1.3,1.3-1,3.1-3.1c2.3-2.6,2.7-3,5.2-5.8c2.5-2.8,5.9-7.2,7.7-9.7c0.4-0.5,0-0.8-0.4-0.6c-2.2,1.3-4.8,2.2-7.2,2.7
		c-3.9,0.9-5-4.4-0.9-4.8c2-0.2,6.5-1.3,8.1-1.9c2.6-1,2.9-1.1,4.2-0.8c2.6,0.4,4.5,3,2,5.5c-3.2,3.3-7.5,8-10.5,11.1
		C36.4,124.3,45,124,49.5,127.9z"/>
	<path class="st1" d="M43.9,181.4c1.7,2.2,3.7,6.1,3.1,8.8c-0.5,2.5-2.8,2.9-5,1.7c-2.6-1.5-9.4-2.5-12.8-0.8
		c-2.5,1.2-1.5,3.8,0.7,4.7c2.1,0.9,4.8,1.3,7.8,0.7c4.3-0.8,4.6,4.5,0.2,4.9c-3.6,0.3-6.7-0.4-9.5-1.6c-5.7-2.4-7-9.2-1.6-11.9
		c3.6-1.8,9.5-1.4,12.7-1.1c2.6,0.3,3.4-0.4,0.6-4.1c-0.3-0.5-0.7-0.9-1.1-1.4c-3.5,1-7.5,1.5-11.1,1.3c-3.3-0.2-3.8-5.2,0.3-4.6
		c2.5,0.3,5.5,0,8.3-0.7c-0.7-1.3-1.5-2.7-2.3-4.1c-2.3,0.5-4.9,0.8-7.7,0.8c-3.1,0-4.1-4.7-0.2-4.4c2.1,0.1,4.1,0,6-0.3
		c-1.1-2.2-2.1-4.3-3.5-5.8c-2.7-3,2.4-4.9,4.1-2.5c1.1,1.5,2.3,4.3,3.5,7.3c1.2-0.4,2.2-0.9,3-1.3c3.2-1.7,5,2.6,2.5,3.8
		c-1.1,0.5-2.4,1-3.9,1.5c0.6,1.4,1.3,2.7,2.1,4c1.5-0.5,2.7-1.1,3.6-1.5c3.4-1.9,5.4,2.5,2.7,3.9c-1,0.5-2.3,1.1-3.8,1.6
		C43.2,180.5,43.6,180.9,43.9,181.4z M47.1,169.2c-0.5-0.9-2.6-2.9-3.4-3.5c-2.2-1.4,0.1-4,2.2-2.8c1.2,0.7,3.4,2.4,4.2,3.7
		C51.5,168.9,48.3,171.3,47.1,169.2z M52.2,165.7c-0.5-0.8-2.6-2.8-3.5-3.4c-2.3-1.3,0-3.9,2.1-2.8c1.2,0.6,3.4,2.3,4.3,3.5
		C56.6,165.3,53.5,167.8,52.2,165.7z"/>
	<path class="st1" d="M38.1,219.1c-0.8,6.1-5.1,15.2-9.7,19.5c-3.7,3.4-7.8,1.5-9.9-2.6c-3-6,0.2-14.9,6.6-19.4
		c5.9-4.1,14.7-4.8,20.8-1.1c7.5,4.5,8.7,13.3,4.5,20.2c-2.3,3.7-7,6.7-11.8,8c-4.2,1.1-5.7-3.8-1.6-4.7c3.7-0.8,7.4-2.9,9-5.4
		c3.4-5.4,2.1-11.7-2.7-14.7c-1.9-1.2-3.9-1.8-6-1.9C38,217.3,38.3,218.1,38.1,219.1z M27.4,220c-4.5,3.5-6.9,9.9-4.9,13.6
		c0.7,1.4,2,2.1,3.2,1.1c3.6-3.2,7-10.8,7.5-16c0-0.6,0.2-1.1,0.4-1.5C31.4,217.6,29.3,218.6,27.4,220z"/>
	<path class="st1" d="M22.3,291.1c-1,0-1.9,0-2.7-0.1c-2.3-0.2-4-2-4-4.5c0-3.4,0-8.4,0-13.2c0-3.4,0-6.6,0-8.9
		c0.1-4.3,4-4.3,6.6-4.3c1,0,2,0,2.9,0c2.6,0.1,4.3,1.8,4.3,4.1c0,2.7,0.1,6.4,0.1,10.1c0,4.5,0,9.1-0.1,12.2
		C29.3,291.1,25.2,291.1,22.3,291.1z M25.3,273.2c0-3,0-5.9-0.1-8c-0.1-1.3-1.4-1.4-2.7-1.4c-1.7,0-2.7,0.2-2.7,1.4
		c0,1.8,0,4.8,0,7.9H25.3z M19.7,277c0,3.3,0,6.6,0,8.6c0,1.1,0.5,1.4,2.7,1.4c2,0,2.6-0.3,2.7-1.4c0.1-2.2,0.1-5.3,0.1-8.6H19.7z
		 M32.2,274.4c-1.4,0-2.1-0.9-2.1-1.9c0-1,0.8-2.1,2.1-2.1l8.4,0v-4h-6.2c-1.5,0-2.2-0.9-2.2-1.9c0-1,0.8-2,2.2-2h6.2v-4.4
		c0-1.4,1.2-2.1,2.3-2.1c1.2,0,2.3,0.7,2.3,2.1v4.4H52c1.4,0,2.1,1,2.1,1.9c0,1-0.7,2-2.1,2h-6.9v4l9.5,0c1.3,0,2,1,2,2
		c0,1-0.7,2-2,2H32.2z M50,282.5l0,3.1l0.1,6.7c0,0,0,0.1,0,0.1c0,2.7-2.1,6.1-7.7,6.1c-4,0-5.1-0.9-5.1-2.6c0-1.2,0.8-2.3,2.1-2.3
		c0.1,0,0.3,0,0.5,0c0.9,0.2,1.9,0.3,2.7,0.3c1.7,0,2.9-0.6,2.9-2.6l0-9l-13.4,0c-1.4,0-2.1-0.9-2.1-1.9c0-1,0.8-2.1,2.1-2.1l13.3,0
		v-1.8c0-1.3,1.1-2,2.2-2s2.2,0.7,2.2,2l0,1.8l4.8,0c1.3,0,2,1,2,2c0,1-0.7,2-2,2L50,282.5z M38.6,290.9c-1.3-1.7-2.9-2.8-4-3.4
		c-0.7-0.4-1.1-0.9-1.1-1.5c0-1,1-2,2.2-2c1.3,0,6.6,2.7,6.6,5.3c0,1.3-1.1,2.5-2.3,2.5C39.7,291.8,39.1,291.6,38.6,290.9z"/>
	<path class="st1" d="M18,350.3c-1.2,0-2.3-0.7-2.3-2c0,0,0,0,0-0.1c0.3-8.8,0.2-24,0.3-34.5c0-4.7,3.3-4.7,8.2-4.7
		c1.8,0,3.8,0,4.7,0c2.5,0.1,4.3,1.6,4.4,3.8c0,1.7,0.1,3.4,0.1,5.1c0,6.1-0.1,7.3-9.6,7.3c-1.3,0-2.5,0-3.3-0.1c0,1.3,0,2.7,0,4.3
		c0,5.2,0,12-0.2,18.7C20.3,349.6,19.1,350.3,18,350.3z M29.1,315.6c0-0.5,0-1,0-1.5c-0.1-1.3-0.3-1.5-4.2-1.5c-4,0-4.3,0.1-4.4,1.9
		c0,0.3,0,0.7,0,1.1H29.1z M20.5,318.7v2.9c0.7,0,2.1,0,3.6,0c4.7,0,5-0.2,5.1-1.5c0-0.4,0-0.9,0-1.4H20.5z M39.2,344.9
		c-1.3,0.1-2.7,0.1-4.1,0.1c-1.4,0-2.9,0-4.2-0.1c-2.9-0.2-4.7-2-4.8-4.5c0-0.7,0-1.5,0-2.3c0-2.2,0.1-4.7,0.2-6.6
		c0.1-2.1,1.5-4.1,4.5-4.3c1.3,0,2.6-0.1,3.9-0.1c1.6,0,3.2,0,4.6,0.1c2.4,0.1,4.2,1.9,4.4,4c0.1,1.7,0.2,3.8,0.2,5.8
		c0,1.3,0,2.4,0,3.4C43.6,342.8,41.8,344.8,39.2,344.9z M29.8,337.5c0,3.8,0,3.8,5,3.8c3.6,0,5,0,5.1-1.9c0-0.5,0-1.2,0-1.9H29.8z
		 M39.8,334.1c0-0.6-0.1-1.1-0.1-1.5c-0.1-1.8-1-1.9-4.3-1.9c-1.2,0-2.5,0-3.7,0c-1.3,0-1.8,1-1.9,1.9c0,0.4-0.1,0.9-0.1,1.4H39.8z
		 M46.6,325.2c-5.7,0-9.7,0-9.8-4.2c0-1,0-2,0-3c0-1.7,0-3.4,0.1-5.1c0.1-2.2,1.8-3.7,4.3-3.8c0.9,0,2.9,0,4.8,0c1.4,0,2.7,0,3.6,0
		c3.6,0.2,5.1,2.1,5.1,4.3c0,1.2,0,2.4,0,3.6c0,7.2,0.1,14.7,0.1,20.8c0,2.3,0,4.3,0,6c0,3.4-1.7,6.4-7.2,6.4
		c-3.4,0-5.1-0.4-5.1-2.6c0-1.1,0.7-2.1,1.9-2.1c0.1,0,0.2,0,0.4,0c0.9,0.1,1.8,0.3,2.6,0.3c1.6,0,2.8-0.6,2.8-2.9
		c0-1.9,0.1-4,0.1-6.2c0-3.2,0-6.6,0-9.6c0-0.7,0-1.3,0-2C49.2,325.2,48,325.2,46.6,325.2z M50,315.6c0-2.9-0.1-3-4.5-3
		c-3.9,0-4.4,0-4.5,1.5c0,0.4,0,1,0,1.4H50z M50.1,318.7h-9.2c0,0.5,0,1,0,1.4c0,1.3,0.2,1.5,5.3,1.5c1.6,0,3.1,0,3.8,0V318.7z"/>
	<path class="st1" d="M51.2,372.6c-3,0-5.5-2.5-5.5-5.5c0-3,2.5-5.5,5.5-5.5s5.5,2.5,5.5,5.5C56.6,370.1,54.2,372.6,51.2,372.6z
		 M51.2,363.4c-2,0-3.7,1.6-3.7,3.7c0,2,1.6,3.7,3.7,3.7s3.7-1.6,3.7-3.7C54.8,365,53.2,363.4,51.2,363.4z"/>
</g>
</svg>
