<svg xmlns="http://www.w3.org/2000/svg" xmlns:xlink="http://www.w3.org/1999/xlink" viewBox="0 0 157.21122 283.24538"><defs><style>.a,.b{fill:none;stroke:#000;stroke-miterlimit:10;}.a{stroke-width:0.28346px;}.b{stroke-width:0.39445px;}.c{mask:url(#a);}.d{filter:url(#b);}</style><filter id="b" filterUnits="userSpaceOnUse" color-interpolation-filters="sRGB"><feColorMatrix values="-1 0 0 0 1 0 -1 0 0 1 0 0 -1 0 1 0 0 0 1 0"/></filter><mask id="a" x="-416.26622" y="-117.93" width="964.93424" height="547.61105" maskUnits="userSpaceOnUse"><g class="d"><g transform="translate(-0.75503 -1.03374)"><line class="a" x1="131.99964" y1="-116.79604" x2="-415.41098" y2="430.61457"/><line class="a" x1="135.93665" y1="-116.79604" x2="-411.47396" y2="430.61457"/><line class="a" x1="139.87366" y1="-116.79604" x2="-407.53695" y2="430.61457"/><line class="a" x1="143.81067" y1="-116.79604" x2="-403.59994" y2="430.61457"/><line class="a" x1="147.74768" y1="-116.79604" x2="-399.66293" y2="430.61457"/><line class="a" x1="151.68469" y1="-116.79604" x2="-395.72592" y2="430.61457"/><line class="a" x1="155.6217" y1="-116.79604" x2="-391.78891" y2="430.61457"/><line class="a" x1="159.55871" y1="-116.79604" x2="-387.8519" y2="430.61457"/><line class="a" x1="163.49572" y1="-116.79604" x2="-383.91489" y2="430.61457"/><line class="a" x1="167.43274" y1="-116.79604" x2="-379.97787" y2="430.61457"/><line class="a" x1="171.36975" y1="-116.79604" x2="-376.04086" y2="430.61457"/><line class="a" x1="175.30676" y1="-116.79604" x2="-372.10385" y2="430.61457"/><line class="a" x1="179.24377" y1="-116.79604" x2="-368.16684" y2="430.61457"/><line class="a" x1="183.18078" y1="-116.79604" x2="-364.22983" y2="430.61457"/><line class="a" x1="187.11779" y1="-116.79604" x2="-360.29282" y2="430.61457"/><line class="a" x1="191.0548" y1="-116.79604" x2="-356.35581" y2="430.61457"/><line class="a" x1="194.99181" y1="-116.79604" x2="-352.4188" y2="430.61457"/><line class="a" x1="198.92883" y1="-116.79604" x2="-348.48179" y2="430.61457"/><line class="a" x1="202.86584" y1="-116.79604" x2="-344.54477" y2="430.61457"/><line class="a" x1="206.80285" y1="-116.79604" x2="-340.60776" y2="430.61457"/><line class="a" x1="210.73986" y1="-116.79604" x2="-336.67075" y2="430.61457"/><line class="a" x1="214.67687" y1="-116.79604" x2="-332.73374" y2="430.61457"/><line class="a" x1="218.61388" y1="-116.79604" x2="-328.79673" y2="430.61457"/><line class="a" x1="222.55089" y1="-116.79604" x2="-324.85972" y2="430.61457"/><line class="a" x1="226.4879" y1="-116.79604" x2="-320.92271" y2="430.61457"/><line class="a" x1="230.42491" y1="-116.79604" x2="-316.9857" y2="430.61457"/><line class="a" x1="234.36193" y1="-116.79604" x2="-313.04868" y2="430.61457"/><line class="a" x1="238.29894" y1="-116.79604" x2="-309.11167" y2="430.61457"/><line class="a" x1="242.23595" y1="-116.79604" x2="-305.17466" y2="430.61457"/><line class="a" x1="246.17296" y1="-116.79604" x2="-301.23765" y2="430.61457"/><line class="a" x1="250.10997" y1="-116.79604" x2="-297.30064" y2="430.61457"/><line class="a" x1="254.04698" y1="-116.79604" x2="-293.36363" y2="430.61457"/><line class="a" x1="257.98399" y1="-116.79604" x2="-289.42662" y2="430.61457"/><line class="a" x1="261.921" y1="-116.79604" x2="-285.48961" y2="430.61457"/><line class="a" x1="265.85802" y1="-116.79604" x2="-281.5526" y2="430.61457"/><line class="a" x1="269.79503" y1="-116.79604" x2="-277.61558" y2="430.61457"/><line class="a" x1="273.73204" y1="-116.79604" x2="-273.67857" y2="430.61457"/><line class="a" x1="277.66905" y1="-116.79604" x2="-269.74156" y2="430.61457"/><line class="a" x1="281.60606" y1="-116.79604" x2="-265.80455" y2="430.61457"/><line class="a" x1="285.54307" y1="-116.79604" x2="-261.86754" y2="430.61457"/><line class="a" x1="289.48008" y1="-116.79604" x2="-257.93053" y2="430.61457"/><line class="a" x1="293.41709" y1="-116.79604" x2="-253.99352" y2="430.61457"/><line class="a" x1="297.35411" y1="-116.79604" x2="-250.05651" y2="430.61457"/><line class="a" x1="301.29112" y1="-116.79604" x2="-246.11949" y2="430.61457"/><line class="a" x1="305.22813" y1="-116.79604" x2="-242.18248" y2="430.61457"/><line class="a" x1="309.16514" y1="-116.79604" x2="-238.24547" y2="430.61457"/><line class="a" x1="313.10215" y1="-116.79604" x2="-234.30846" y2="430.61457"/><line class="a" x1="317.03916" y1="-116.79604" x2="-230.37145" y2="430.61457"/><line class="a" x1="320.97617" y1="-116.79604" x2="-226.43444" y2="430.61457"/><line class="a" x1="324.91318" y1="-116.79604" x2="-222.49743" y2="430.61457"/><line class="a" x1="328.85019" y1="-116.79604" x2="-218.56042" y2="430.61457"/><line class="a" x1="332.78721" y1="-116.79604" x2="-214.6234" y2="430.61457"/><line class="a" x1="336.72422" y1="-116.79604" x2="-210.68639" y2="430.61457"/><line class="a" x1="340.66123" y1="-116.79604" x2="-206.74938" y2="430.61457"/><line class="a" x1="344.59824" y1="-116.79604" x2="-202.81237" y2="430.61457"/><line class="a" x1="348.53525" y1="-116.79604" x2="-198.87536" y2="430.61457"/><line class="a" x1="352.47226" y1="-116.79604" x2="-194.93835" y2="430.61457"/><line class="a" x1="356.40927" y1="-116.79604" x2="-191.00134" y2="430.61457"/><line class="a" x1="360.34628" y1="-116.79604" x2="-187.06433" y2="430.61457"/><line class="a" x1="364.2833" y1="-116.79604" x2="-183.12732" y2="430.61457"/><line class="a" x1="368.22031" y1="-116.79604" x2="-179.1903" y2="430.61457"/><line class="a" x1="372.15732" y1="-116.79604" x2="-175.25329" y2="430.61457"/><line class="a" x1="376.09433" y1="-116.79604" x2="-171.31628" y2="430.61457"/><line class="a" x1="380.03134" y1="-116.79604" x2="-167.37927" y2="430.61457"/><line class="a" x1="383.96835" y1="-116.79604" x2="-163.44226" y2="430.61457"/><line class="a" x1="387.90536" y1="-116.79604" x2="-159.50525" y2="430.61457"/><line class="a" x1="391.84237" y1="-116.79604" x2="-155.56824" y2="430.61457"/><line class="a" x1="395.77939" y1="-116.79604" x2="-151.63123" y2="430.61457"/><line class="a" x1="399.7164" y1="-116.79604" x2="-147.69421" y2="430.61457"/><line class="a" x1="403.65341" y1="-116.79604" x2="-143.7572" y2="430.61457"/><line class="a" x1="407.59042" y1="-116.79604" x2="-139.82019" y2="430.61457"/><line class="a" x1="411.52743" y1="-116.79604" x2="-135.88318" y2="430.61457"/><line class="a" x1="415.46444" y1="-116.79604" x2="-131.94617" y2="430.61457"/><line class="a" x1="419.40145" y1="-116.79604" x2="-128.00916" y2="430.61457"/><line class="a" x1="423.33846" y1="-116.79604" x2="-124.07215" y2="430.61457"/><line class="a" x1="427.27547" y1="-116.79604" x2="-120.13514" y2="430.61457"/><line class="a" x1="431.21249" y1="-116.79604" x2="-116.19812" y2="430.61457"/><line class="a" x1="435.1495" y1="-116.79604" x2="-112.26111" y2="430.61457"/><line class="a" x1="439.08651" y1="-116.79604" x2="-108.3241" y2="430.61457"/><line class="a" x1="443.02352" y1="-116.79604" x2="-104.38709" y2="430.61457"/><line class="a" x1="446.96053" y1="-116.79604" x2="-100.45008" y2="430.61457"/><line class="a" x1="450.89754" y1="-116.79604" x2="-96.51307" y2="430.61457"/><line class="a" x1="454.83455" y1="-116.79604" x2="-92.57606" y2="430.61457"/><line class="a" x1="458.77156" y1="-116.79604" x2="-88.63905" y2="430.61457"/><line class="a" x1="462.70858" y1="-116.79604" x2="-84.70204" y2="430.61457"/><line class="a" x1="466.64559" y1="-116.79604" x2="-80.76502" y2="430.61457"/><line class="a" x1="470.5826" y1="-116.79604" x2="-76.82801" y2="430.61457"/><line class="a" x1="474.51961" y1="-116.79604" x2="-72.891" y2="430.61457"/><line class="a" x1="478.45662" y1="-116.79604" x2="-68.95399" y2="430.61457"/><line class="a" x1="482.39363" y1="-116.79604" x2="-65.01698" y2="430.61457"/><line class="a" x1="486.33064" y1="-116.79604" x2="-61.07997" y2="430.61457"/><line class="a" x1="490.26765" y1="-116.79604" x2="-57.14296" y2="430.61457"/><line class="a" x1="494.20466" y1="-116.79604" x2="-53.20595" y2="430.61457"/><line class="a" x1="498.14168" y1="-116.79604" x2="-49.26893" y2="430.61457"/><line class="a" x1="502.07869" y1="-116.79604" x2="-45.33192" y2="430.61457"/><line class="a" x1="506.0157" y1="-116.79604" x2="-41.39491" y2="430.61457"/><line class="a" x1="509.95271" y1="-116.79604" x2="-37.4579" y2="430.61457"/><line class="a" x1="513.88972" y1="-116.79604" x2="-33.52089" y2="430.61457"/><line class="a" x1="517.82673" y1="-116.79604" x2="-29.58388" y2="430.61457"/><line class="a" x1="521.76374" y1="-116.79604" x2="-25.64687" y2="430.61457"/><line class="a" x1="525.70075" y1="-116.79604" x2="-21.70986" y2="430.61457"/><line class="a" x1="529.63777" y1="-116.79604" x2="-17.77285" y2="430.61457"/><line class="a" x1="533.57478" y1="-116.79604" x2="-13.83583" y2="430.61457"/><line class="a" x1="537.51179" y1="-116.79604" x2="-9.89882" y2="430.61457"/><line class="a" x1="541.4488" y1="-116.79604" x2="-5.96181" y2="430.61457"/><line class="a" x1="545.38581" y1="-116.79604" x2="-2.0248" y2="430.61457"/><line class="a" x1="549.32282" y1="-116.79604" x2="1.91221" y2="430.61457"/></g></g></mask></defs><title>vol2</title><path class="b" d="M4.68825,165.03047v-3.70311l18.17187-5.23877v-.06348L4.68825,150.77072v-3.70314L28.54469,154.696v2.7217Z" transform="translate(-0.75503 -1.03374)"/><path class="b" d="M16.617,144.77365a41.2698,41.2698,0,0,1-5.5752-.23731A6.753,6.753,0,0,1,8.76247,143.76a8.12325,8.12325,0,0,1-2.9336-2.69288A7.78509,7.78509,0,0,1,4.492,136.52072a7.934,7.934,0,0,1,4.28711-7.22364,5.59,5.59,0,0,1,2.27441-.80761,47.44658,47.44658,0,0,1,5.56348-.20557,47.53186,47.53186,0,0,1,5.53027.20557,5.63087,5.63087,0,0,1,2.30664.8081A7.68431,7.68431,0,0,1,27.367,131.927a8.06894,8.06894,0,0,1,1.374,4.59375A8.30488,8.30488,0,0,1,24.45387,143.76q-.53905.2534-1.03027.45946a6.91421,6.91421,0,0,1-1.27637.3169A41.17184,41.17184,0,0,1,16.617,144.77365Zm0-3.498a28.86043,28.86043,0,0,0,4.77148-.25391,4.044,4.044,0,0,0,2.01661-.90527,4.1309,4.1309,0,0,0,1.19726-1.46048,4.01673,4.01673,0,0,0,.541-2.12745,4.22042,4.22042,0,0,0-.541-2.1748,3.91943,3.91943,0,0,0-1.19726-1.397,4.261,4.261,0,0,0-2.01661-.93652,30.70772,30.70772,0,0,0-4.77148-.23828,31.4149,31.4149,0,0,0-4.80469.23828,5.00355,5.00355,0,0,0-3.21387,2.3335,4.97623,4.97623,0,0,0-.50781,2.17481,4.72624,4.72624,0,0,0,.50778,2.12746,4.4647,4.4647,0,0,0,1.22951,1.46045,4.02085,4.02085,0,0,0,1.98438.90526,29.52233,29.52233,0,0,0,4.8047.2539Z" transform="translate(-0.75503 -1.03374)"/><path class="b" d="M4.68825,123.552v-3.49854H25.14337v-11.2632h3.40137V123.552Z" transform="translate(-0.75503 -1.03374)"/><path class="b" d="M25.14337,105.11154v-3.30226h3.40137v3.30226Z" transform="translate(-0.75503 -1.03374)"/><g class="c"><path d="M61.74878,120.88584h13.236q19.70286,0,30.5686-11.33621,10.86245-10.9479,10.86409-28.4321-.36794-17.67615-11.22-29.01236Q94.34325,41.15727,77.23841,40.76895a34.637,34.637,0,0,0-22.44326,8.26057Q44.12325,57.2934,40.44767,74.58344H2.0023q2.94024-30.944,24.07709-52.15365Q46.8483,1.41764,75.70533,1.03374q36.5772.38391,58.08308,24.272,20.5833,23.32055,20.95289,55.044a86.079,86.079,0,0,1-5.69213,30.96168q-6.64263,14.90773-23.71462,26.56663,17.45252,11.46749,25.23238,27.522a79.4506,79.4506,0,0,1,7.39932,33.638q-.36958,39.18142-23.32369,61.7325-22.59219,23.12859-58.036,23.50863-27.36884,0-48.48817-18.31489Q6.998,247.65264.755,212.92694H39.16974q5.1446,13.98935,14.52269,22.60955,9.55494,9.00851,25.366,9.00631A37.93686,37.93686,0,0,0,107.54858,232.473q11.76095-11.307,12.13-32.19281-.36959-21.26865-12.12669-32.95732Q95.9716,156.01752,78.1506,156.01752H61.74878Z" transform="translate(-0.75503 -1.03374)"/></g></svg>